<?xml version="1.0" standalone="no"?>
<!DOCTYPE svg PUBLIC "-//W3C//DTD SVG 1.1//EN" "http://www.w3.org/Graphics/SVG/1.1/DTD/svg11.dtd" >
<svg xmlns="http://www.w3.org/2000/svg">
<metadata></metadata>
<defs>
<font id="blogger_sansbold" horiz-adv-x="1105" >
<font-face units-per-em="2048" ascent="1556" descent="-492" />
<missing-glyph horiz-adv-x="614" />
<glyph horiz-adv-x="0" />
<glyph horiz-adv-x="682" />
<glyph unicode=" "  horiz-adv-x="614" />
<glyph unicode="&#x09;" horiz-adv-x="614" />
<glyph unicode="&#xa0;" horiz-adv-x="614" />
<glyph unicode="!" horiz-adv-x="546" d="M104 141q0 65 50 111.5t122 46.5q69 0 119.5 -47t50.5 -111q0 -65 -50.5 -112t-119.5 -47q-71 0 -121.5 47t-50.5 112zM129 1329q0 53 42 93t101 40q58 0 101 -40t43 -93l-21 -862q-1 -46 -38.5 -80.5t-84.5 -34.5q-52 0 -87 33.5t-35 81.5z" />
<glyph unicode="&#x22;" horiz-adv-x="784" d="M115 1030l41 428q7 44 51 72t94 22q52 -7 82 -46.5t18 -82.5q-17 -69 -46 -210t-50 -222q-9 -33 -42.5 -52.5t-72.5 -14.5q-35 6 -56.5 38.5t-18.5 67.5zM416 1030l41 428q7 44 51 72t94 22q52 -7 82 -46.5t18 -82.5q-17 -69 -46 -210t-50 -222q-9 -33 -42 -52.5 t-72 -14.5q-35 6 -57 38.5t-19 67.5z" />
<glyph unicode="#" horiz-adv-x="1189" d="M66 555q0 54 43 92.5t98 38.5h53l21 78h-13q-60 0 -100.5 37.5t-40.5 93.5q0 54 42.5 91.5t98.5 37.5h74l82 336q13 47 50.5 71.5t90.5 24.5q49 -5 86.5 -41t36.5 -84q0 -16 -4 -26l-68 -281h95l82 336q13 47 50.5 71.5t90.5 24.5q53 -5 89.5 -42t33.5 -87q0 -6 -4 -22 l-68 -281q54 -2 95.5 -39t41.5 -90q0 -56 -40.5 -93.5t-100.5 -37.5h-57l-21 -78h17q55 0 98 -38.5t43 -92.5q0 -56 -40.5 -93.5t-100.5 -37.5h-78l-82 -340q-13 -46 -51 -71t-91 -25q-53 3 -88.5 39.5t-35.5 87.5l4 18l69 291h-94l-82 -340q-13 -47 -50.5 -71.5 t-90.5 -24.5q-51 5 -88 41t-37 86l4 18l70 291q-57 3 -95 40t-38 91zM535 686h94l20 78h-94z" />
<glyph unicode="$" horiz-adv-x="1077" d="M63 240q0 48 37.5 88.5t106.5 40.5q41 0 127 -31t151 -35v305h-1q-168 54 -240 96q-165 95 -177 276q-1 16 -1 32q0 173 112 274.5t307 112.5v102q0 22 16 37.5t38 15.5t37.5 -15.5t15.5 -37.5v-102q47 -3 92 -9t95 -20t87 -33.5t61.5 -51.5t24.5 -71q0 -53 -40 -90 t-101 -37q-34 0 -96 24t-123 28v-287q163 -55 215 -80q140 -67 182 -177q23 -59 23 -134q0 -179 -116 -287t-304 -127v-104q0 -22 -15 -38t-38 -16t-38.5 16t-15.5 38v100q-69 2 -139.5 14t-135.5 35t-106 61.5t-41 86.5zM358 1022q0 -76 86 -113l41 -18v246 q-127 -18 -127 -115zM592 309q125 26 125 133q0 34 -14.5 59t-30 35.5t-39.5 20.5l-41 16v-264z" />
<glyph unicode="%" horiz-adv-x="1521" d="M51 1106q0 158 87 258t243 100t243 -100t87 -258q0 -157 -87.5 -257.5t-242.5 -100.5t-242.5 100.5t-87.5 257.5zM289 158l10 22l690 1221q26 41 70 56t92 1q47 -14 73.5 -53t14.5 -84q-3 -19 -12 -37l-690 -1223q-24 -40 -69 -56t-97 -5q-49 17 -72.5 62.5t-9.5 95.5z M293 1110q0 -133 88 -133t88 133q0 125 -88 125t-88 -125zM811 340q0 156 87.5 257t242.5 101t242 -101t87 -257q0 -158 -86.5 -258t-242.5 -100t-243 100t-87 258zM1053 344q0 -133 88 -133t88 133q0 125 -88 125t-88 -125z" />
<glyph unicode="&#x26;" horiz-adv-x="1396" d="M76 395q0 241 274 416q-135 160 -135 303q0 101 58 181t150.5 121.5t197.5 41.5q107 0 200 -44t145 -111.5t52 -137.5q0 -63 -42.5 -100t-101.5 -37q-40 0 -67 19t-41.5 46l-29 54t-40.5 46t-65 19q-53 0 -93 -30t-40 -74q0 -68 125 -197l346 -362l75 143q47 89 127 82 q56 -5 97 -40.5t41 -88.5q0 -54 -44 -138t-106 -169l129 -143q33 -38 33 -84q0 -52 -39.5 -90.5t-103.5 -38.5q-37 0 -62.5 14t-52.5 45l-88 96q-183 -155 -412 -155q-216 0 -351.5 117t-135.5 296zM356 410q0 -73 53 -127t146 -54q126 0 240 103l-271 286 q-80 -46 -124 -93.5t-44 -114.5z" />
<glyph unicode="'" horiz-adv-x="538" d="M145 1030l41 428q7 44 51.5 72t94.5 22q52 -7 82 -46.5t18 -82.5q-17 -69 -46 -210t-50 -222q-9 -33 -42.5 -52.5t-72.5 -14.5q-35 6 -57 38.5t-19 67.5z" />
<glyph unicode="(" horiz-adv-x="647" d="M113 473q0 231 59.5 454.5t181.5 409.5q43 64 121 64q68 0 103.5 -40t35.5 -97q0 -32 -28 -78q-189 -310 -189 -713q0 -401 189 -711q28 -50 28 -79q0 -56 -35.5 -96t-103.5 -40q-77 0 -121 62q-122 186 -181.5 409.5t-59.5 454.5z" />
<glyph unicode=")" horiz-adv-x="645" d="M31 -317q0 29 28 79q189 310 189 711q0 403 -189 713q-28 46 -28 78q0 57 35.5 97t103.5 40q78 0 121 -64q122 -186 181.5 -409.5t59.5 -454.5t-59.5 -454.5t-181.5 -409.5q-44 -62 -121 -62q-68 0 -103.5 40t-35.5 96z" />
<glyph unicode="*" horiz-adv-x="1097" d="M94 1157q0 55 33.5 91t73.5 36q14 0 20 -2l221 -82l-26 166q-8 49 29 89t104 40t104 -40t29 -89l-27 -166l224 82q6 2 20 2q40 0 73.5 -36t33.5 -91q0 -42 -29.5 -74t-73.5 -43l-170 -18l115 -131q35 -44 35 -86t-43.5 -80.5t-94.5 -38.5q-70 0 -110 57l-86 144l-84 -144 q-40 -57 -111 -57q-51 0 -94 38.5t-43 80.5t35 86l115 131l-170 18q-44 11 -73.5 43t-29.5 74z" />
<glyph unicode="+" d="M25 725q0 54 42.5 91.5t98.5 37.5h246v264q0 52 41 91.5t100 39.5q60 0 100.5 -37.5t40.5 -93.5v-264h246q56 0 98.5 -37.5t42.5 -91.5q0 -56 -40.5 -93.5t-100.5 -37.5h-246v-264q0 -55 -40.5 -92t-100.5 -37q-59 0 -100 39t-41 90v264h-246q-60 0 -100.5 37.5 t-40.5 93.5z" />
<glyph unicode="," horiz-adv-x="552" d="M104 141q0 65 50 111.5t122 46.5q70 0 120 -46.5t50 -119.5q0 -65 -26 -162.5t-72.5 -177.5t-93.5 -80q-21 0 -39.5 5.5t-34 27.5t-10.5 59q3 33 31.5 85t36.5 98q-59 12 -96.5 55t-37.5 98z" />
<glyph unicode="-" horiz-adv-x="899" d="M57 614q0 51 40 88t98 37h510q57 0 96 -37t39 -88q0 -54 -39 -89.5t-96 -35.5h-510q-59 0 -98.5 35.5t-39.5 89.5z" />
<glyph unicode="." horiz-adv-x="552" d="M104 141q0 65 50 111.5t122 46.5q69 0 119.5 -47t50.5 -111q0 -65 -50.5 -112t-119.5 -47q-71 0 -121.5 47t-50.5 112z" />
<glyph unicode="/" horiz-adv-x="737" d="M-33 57l535 1409q19 47 61 70t92 14q52 -9 85 -52t28 -91q-3 -17 -10 -31l-525 -1380q-19 -47 -62 -70.5t-93 -15.5q-57 11 -92.5 55t-18.5 92z" />
<glyph unicode="0" d="M80 430v563q0 104 28 190.5t84 154t148.5 105.5t212.5 38t212.5 -38t148.5 -105.5t84 -154t28 -190.5v-563q0 -127 -53.5 -227t-162.5 -160.5t-257 -60.5t-257 60.5t-162.5 160.5t-53.5 227zM365 430q0 -90 49 -143.5t139 -53.5t139 53.5t49 143.5v578q0 104 -45.5 163.5 t-142.5 59.5t-142.5 -59.5t-45.5 -163.5v-578z" />
<glyph unicode="1" d="M121 1087q0 78 63 115l406 238q40 22 80 22q64 0 107.5 -39t43.5 -98v-1210q0 -53 -42.5 -92t-100.5 -39q-59 0 -101 39t-42 92v995l-162 -98q-67 -43 -121 -43q-53 0 -92 28.5t-39 89.5z" />
<glyph unicode="2" d="M72 135q0 61 16 96q24 52 59.5 105t64.5 89t84 90.5t79.5 77.5t89.5 81q15 13 58.5 51t64.5 57.5t56 56.5t52 65t31 65.5t14 74.5q0 82 -50 134.5t-142 52.5q-91 0 -172 -33q-14 -5 -42 -21t-53 -25t-51 -9q-55 0 -97 35t-42 90q0 53 47.5 96t120.5 67.5t148.5 37 t142.5 12.5q218 0 345.5 -118.5t127.5 -297.5q0 -122 -42 -214t-120 -173q-51 -53 -140.5 -132.5t-164 -151t-123.5 -138.5h457q60 0 100.5 -36.5t40.5 -90.5t-40.5 -91.5t-100.5 -37.5h-674q-64 0 -104.5 38.5t-40.5 96.5z" />
<glyph unicode="3" d="M86 180q0 52 39.5 89.5t95.5 37.5q34 0 75.5 -19t93 -38t110.5 -19q64 0 111.5 20.5t73.5 55t38 73.5t12 81q0 188 -233 188q-27 0 -53.5 -11t-51.5 -11q-56 0 -94.5 39t-38.5 96q0 31 15 49l305 371h-330q-60 0 -100.5 37.5t-40.5 91.5q0 56 40.5 95.5t100.5 39.5h571 q66 0 108 -39.5t42 -99.5q0 -52 -33 -93l-278 -331q163 -30 259.5 -138.5t96.5 -271.5q0 -68 -18.5 -135.5t-59 -132t-98.5 -113.5t-144.5 -78.5t-189.5 -29.5q-36 0 -81.5 4t-108.5 16.5t-113 32.5t-85.5 57.5t-35.5 85.5z" />
<glyph unicode="4" d="M51 420q0 25 21 72l393 907q15 36 50.5 58t76.5 22q54 0 97.5 -40t43.5 -93q0 -28 -8 -46q-59 -137 -166.5 -381.5t-167.5 -381.5h256v313q0 55 40.5 92t100.5 37q58 0 100 -37t42 -92v-313h26q58 0 98 -37.5t40 -89.5q0 -54 -40 -91.5t-98 -37.5h-26v-168q0 -55 -41 -92 t-101 -37t-100.5 37t-40.5 92v168h-450q-63 0 -104.5 41t-41.5 98z" />
<glyph unicode="5" d="M86 180q0 52 39.5 89.5t97.5 37.5q32 0 72.5 -19t92 -38t110.5 -19q65 0 113 20.5t74 56t38 76.5t12 89q0 109 -54 165t-142 56q-62 0 -113 -26q-9 -7 -24.5 -17.5t-54.5 -28.5t-68 -18q-62 0 -103.5 39t-40.5 100l21 566q1 62 47.5 99.5t107.5 37.5h494q63 0 109.5 -32 t46.5 -97q0 -64 -46 -94.5t-110 -30.5h-383l-12 -266q55 16 133 16q214 0 345.5 -123.5t131.5 -337.5q0 -73 -17 -143t-54 -134.5t-91 -113t-135 -77.5t-178 -29q-37 0 -85.5 4t-117 16.5t-123.5 32.5t-94 57.5t-39 85.5z" />
<glyph unicode="6" d="M63 686q0 378 128.5 577t386.5 199q44 0 94 -5.5t116.5 -20t112 -49t51.5 -84.5t-29.5 -88.5t-97.5 -38.5q-31 0 -101.5 18.5t-121.5 19.5q-57 1 -99 -16t-68 -44.5t-42.5 -74t-24 -92.5t-12.5 -110q101 61 222 61q95 0 178 -30t147.5 -86.5t101.5 -147t37 -203.5 q0 -101 -30.5 -188.5t-89.5 -155.5t-154 -106.5t-215 -38.5q-138 0 -235.5 51.5t-152 149t-78.5 220t-24 283.5zM350 588q0 -58 5 -105.5t19.5 -93.5t37.5 -77.5t61.5 -50.5t89.5 -19q102 0 148.5 64t46.5 163q0 106 -52.5 159.5t-148.5 53.5q-60 0 -116 -19t-91 -51v-24z " />
<glyph unicode="7" d="M82 1315q0 54 40.5 92.5t98.5 38.5h656q61 0 104 -39.5t43 -97.5q0 -38 -12 -60l-510 -1183q-35 -82 -127 -82q-61 0 -104.5 32t-43.5 88q0 31 11 56l448 1024h-465q-56 0 -97.5 38t-41.5 93z" />
<glyph unicode="8" d="M37 416q0 214 203 346q-152 116 -152 299q0 121 63.5 213.5t168 139t231.5 46.5q197 0 330 -110t133 -281q0 -175 -152 -293q205 -134 205 -352q0 -192 -144 -317t-370 -125q-223 0 -369.5 122.5t-146.5 311.5zM322 424q0 -83 66 -138t165 -55t164 56t65 137t-66.5 136 t-168.5 77q-100 -21 -162.5 -77t-62.5 -136zM371 1063q0 -67 53 -113.5t133 -62.5q78 18 127 65t49 111q0 65 -52 108t-128 43q-77 0 -129.5 -43t-52.5 -108z" />
<glyph unicode="9" d="M63 973q0 101 30.5 188.5t90 155.5t154.5 106.5t215 38.5q111 0 196 -34.5t140 -95t90 -151t49 -193t14 -230.5q0 -379 -128 -577.5t-386 -198.5q-44 0 -94 5.5t-116.5 20t-112 49t-51.5 84.5t29.5 88.5t97.5 38.5q31 0 101.5 -19t121.5 -20q57 -1 99 16t68 45t42.5 74.5 t24 92.5t12.5 110q-101 -61 -222 -61q-95 0 -178.5 30t-147.5 86.5t-101.5 147t-37.5 203.5zM348 975q0 -106 52.5 -159.5t148.5 -53.5q60 0 116 18.5t91 50.5v25q0 58 -5 105.5t-19.5 93.5t-37.5 77.5t-61.5 50.5t-89.5 19q-102 0 -148.5 -64t-46.5 -163z" />
<glyph unicode=":" horiz-adv-x="552" d="M104 141q0 65 50 111.5t122 46.5q69 0 119.5 -47t50.5 -111q0 -65 -50.5 -112t-119.5 -47q-71 0 -121.5 47t-50.5 112zM104 755q0 65 50 111.5t122 46.5q69 0 119.5 -47t50.5 -111q0 -65 -50.5 -112t-119.5 -47q-71 0 -121.5 47t-50.5 112z" />
<glyph unicode=";" horiz-adv-x="552" d="M104 141q0 65 50 111.5t122 46.5q70 0 120 -46.5t50 -119.5q0 -65 -26 -162.5t-72.5 -177.5t-93.5 -80q-21 0 -39.5 5.5t-34 27.5t-10.5 59q3 33 31.5 85t36.5 98q-59 12 -96.5 55t-37.5 98zM104 756q0 65 50 111t122 46q69 0 119.5 -46.5t50.5 -110.5 q0 -65 -50.5 -112.5t-119.5 -47.5q-71 0 -121.5 47.5t-50.5 112.5z" />
<glyph unicode="&#x3c;" horiz-adv-x="1361" d="M119 721q0 39 15.5 66t33 39t53.5 30l817 393q27 15 66 15q61 0 100 -39t39 -95q0 -35 -25.5 -68t-64.5 -52l-625 -289l625 -289q40 -19 65 -52t25 -67q0 -57 -38.5 -95t-100.5 -38q-36 0 -66 15l-815 391q-36 18 -54 30.5t-34 39.5t-16 65z" />
<glyph unicode="=" d="M106 535q0 54 43.5 92.5t98.5 38.5h610q55 0 98 -38.5t43 -92.5q0 -56 -40.5 -94t-100.5 -38h-610q-60 0 -101 38t-41 94zM106 915q0 54 43 91.5t99 37.5h610q56 0 98.5 -37.5t42.5 -91.5q0 -56 -40.5 -93.5t-100.5 -37.5h-610q-60 0 -101 38t-41 93z" />
<glyph unicode="&#x3e;" horiz-adv-x="1361" d="M119 313q0 34 25 67t65 52l625 289l-625 289q-39 19 -64.5 52t-25.5 68q0 56 39 95t100 39q39 0 66 -15l817 -393q36 -18 53.5 -30t33 -39t15.5 -66q0 -38 -16 -65t-34 -39.5t-54 -30.5l-815 -391q-30 -15 -66 -15q-62 0 -100.5 38t-38.5 95z" />
<glyph unicode="?" horiz-adv-x="1028" d="M55 1272q0 53 45 96t115 67.5t144.5 37t142.5 12.5q210 0 337.5 -118t127.5 -312q0 -112 -43 -200t-119 -171q-40 -43 -85 -88t-54 -55q-17 -17 -17 -64q-3 -58 -45 -94.5t-98 -36.5q-55 0 -99.5 36.5t-44.5 106.5q0 121 160 285q79 81 108 126q54 81 54 157 q0 77 -52 127.5t-151 50.5q-95 0 -162 -33q-14 -6 -37 -22t-43.5 -24.5t-45.5 -8.5q-53 0 -95.5 35.5t-42.5 89.5zM334 139q0 65 50 111.5t120 46.5t121 -46.5t51 -111.5t-51 -112t-121 -47t-120 47t-50 112z" />
<glyph unicode="@" horiz-adv-x="1605" d="M111 647q0 197 77.5 345.5t234 233.5t374.5 85q168 0 302 -50.5t219.5 -139t131 -204.5t45.5 -249q0 -162 -73 -255.5t-230 -93.5q-132 0 -209 80q-50 -56 -91 -78t-99 -22q-148 0 -241 99.5t-93 258.5q0 151 88 244.5t254 93.5q73 0 129 -20.5t89.5 -51t56.5 -77.5 t33 -88.5t17 -95.5q13 -85 23 -106q14 -30 43 -30q72 0 72 129q0 130 -51 232.5t-157.5 164.5t-254.5 62q-219 0 -339 -128.5t-120 -338.5q0 -208 120.5 -330t356.5 -122q65 0 113 11.5t123 39.5q50 15 100 2.5t70 -53.5q10 -34 6.5 -59t-25 -46.5t-44 -34.5t-50.5 -24 q-57 -24 -150.5 -40t-179.5 -16q-311 0 -491 184.5t-180 487.5zM700 645q0 -69 24.5 -105t70.5 -36q41 0 102 41q-8 46 -9.5 55t-1.5 22t-1 33q-2 25 -3 37t-6.5 33.5t-13.5 32t-23.5 19.5t-37.5 9q-101 0 -101 -141z" />
<glyph unicode="A" horiz-adv-x="1206" d="M31 113q0 30 6 45l399 1165q23 67 60.5 103t105.5 36q69 0 106.5 -35.5t61.5 -103.5l399 -1165q7 -17 7 -45q0 -58 -42 -94.5t-106 -36.5q-41 0 -83 27.5t-56 68.5l-72 207h-436l-68 -207q-14 -42 -55 -69t-80 -27q-61 0 -104 37t-43 94zM457 518h286l-104 350 q-20 64 -37 201q-17 -137 -37 -201z" />
<glyph unicode="B" horiz-adv-x="1191" d="M129 147v1149q0 62 47.5 105t112.5 43h346q89 0 165.5 -22t130 -60.5t91.5 -89.5t56 -109.5t18 -120.5q0 -187 -215 -290q254 -102 254 -322q0 -185 -138.5 -307.5t-369.5 -122.5h-338q-67 0 -113.5 43.5t-46.5 103.5zM416 260h229q99 0 151 46.5t52 127.5 q0 85 -53.5 133.5t-137.5 48.5h-241v-356zM416 879h235q61 0 109.5 41t48.5 118q0 65 -34.5 106.5t-108.5 41.5h-250v-307z" />
<glyph unicode="C" horiz-adv-x="1069" d="M72 520v406q0 251 130.5 393.5t391.5 142.5q107 0 205 -29.5t158.5 -80.5t60.5 -109q0 -50 -38.5 -86.5t-96.5 -36.5q-14 0 -24.5 1.5t-20 5t-14 6t-15 9.5t-14.5 9l-21 12q-76 49 -170 49q-132 0 -189 -73t-57 -213v-406q0 -140 57 -213.5t189 -73.5q93 0 170 50l21 12 q4 2 14.5 9t15 9.5t14 6t20 5t24.5 1.5q58 0 96.5 -36.5t38.5 -86.5q0 -58 -60.5 -109t-158.5 -80.5t-205 -29.5q-261 0 -391.5 142.5t-130.5 393.5z" />
<glyph unicode="D" horiz-adv-x="1216" d="M129 147v1151q0 60 47.5 104t112.5 44h231q135 0 242 -29t177.5 -78.5t117 -119t66.5 -146.5t20 -166v-352q0 -90 -19.5 -169t-66 -151t-117 -123t-178 -81.5t-242.5 -30.5h-231q-65 0 -112.5 43.5t-47.5 103.5zM416 260h139q158 0 229.5 81t71.5 214v352q0 127 -72 203 t-229 76h-139v-926z" />
<glyph unicode="E" horiz-adv-x="1052" d="M129 145v1153q0 56 46.5 101t111.5 45h555q58 0 100.5 -39.5t42.5 -93.5q0 -55 -42 -91t-101 -36h-426v-330h387q56 0 98.5 -37.5t42.5 -91.5q0 -56 -40.5 -93.5t-100.5 -37.5h-387v-334h446q58 0 101 -37.5t43 -89.5q0 -55 -42.5 -94t-101.5 -39h-543q-84 0 -137 34 t-53 111z" />
<glyph unicode="F" horiz-adv-x="1052" d="M129 113v1187q0 56 46.5 101t111.5 45h555q58 0 100.5 -39.5t42.5 -93.5q0 -55 -42 -91t-101 -36h-426v-332h387q56 0 98.5 -37.5t42.5 -91.5q0 -56 -40.5 -93.5t-100.5 -37.5h-387v-481q0 -53 -43 -92t-101 -39q-59 0 -101 39t-42 92z" />
<glyph unicode="G" horiz-adv-x="1146" d="M72 520v406q0 251 130.5 393.5t391.5 142.5q107 0 205 -29.5t158.5 -80.5t60.5 -109q0 -50 -38.5 -86.5t-96.5 -36.5q-14 0 -24.5 1.5t-20 5t-14 6t-15 9.5t-14.5 9l-21 12q-81 49 -170 49q-132 0 -189 -73t-57 -213v-406q0 -140 57 -213.5t189 -73.5q89 0 170 43v320 h-106q-52 0 -90.5 38t-38.5 91t38.5 91t90.5 38h223q75 0 121.5 -36.5t46.5 -106.5v-453q0 -69 -42.5 -123.5t-111.5 -86.5t-148.5 -48t-162.5 -16q-261 0 -391.5 142.5t-130.5 393.5z" />
<glyph unicode="H" horiz-adv-x="1269" d="M129 115v1216q0 53 42 92t101 39q58 0 101 -39t43 -92v-477h436v477q0 52 43 91.5t100 39.5t100.5 -39.5t43.5 -91.5v-1216q0 -54 -43 -93.5t-101 -39.5q-57 0 -100 39.5t-43 93.5v477h-436v-477q0 -54 -43 -93.5t-101 -39.5q-60 0 -101.5 39.5t-41.5 93.5z" />
<glyph unicode="I" horiz-adv-x="546" d="M129 113v1218q0 53 42 92t101 39q58 0 101 -39t43 -92v-1218q0 -53 -43 -92t-101 -39q-59 0 -101 39t-42 92z" />
<glyph unicode="J" horiz-adv-x="870" d="M31 123q0 57 42.5 93t90.5 36q23 0 61 -6t64 -6q97 0 131.5 59t34.5 182v850q0 55 41 93t102 38q57 0 100 -39.5t43 -91.5v-850q0 -97 -14 -172t-48 -137.5t-88 -103.5t-135.5 -63.5t-189.5 -22.5q-235 0 -235 141z" />
<glyph unicode="K" horiz-adv-x="1138" d="M129 115v1216q0 53 42 92t101 39q58 0 101 -39t43 -92v-389l405 461q20 25 52.5 42t64.5 17q49 0 95 -39.5t46 -91.5q0 -27 -6 -44.5t-29 -43.5l-407 -461l448 -594q23 -31 23 -69q0 -49 -38.5 -93t-100.5 -44q-74 0 -119 59l-397 532l-37 -41v-417q0 -54 -43 -93.5 t-101 -39.5q-60 0 -101.5 39.5t-41.5 93.5z" />
<glyph unicode="L" horiz-adv-x="1030" d="M129 141v1190q0 53 42 92t101 39q58 0 101 -39t43 -92v-1073h444q56 0 97.5 -37t41.5 -90q0 -55 -40 -93t-99 -38h-577q-62 0 -108 41t-46 100z" />
<glyph unicode="M" horiz-adv-x="1554" d="M121 111v1216q0 58 42 96.5t105 38.5q103 0 144 -80l364 -723l365 725q38 78 141 78q63 0 105.5 -39.5t42.5 -95.5v-1216q0 -52 -42.5 -90.5t-99.5 -38.5q-59 0 -102 38.5t-43 90.5v704l-234 -459q-39 -77 -135 -77q-94 0 -133 77l-233 459v-704q0 -52 -44 -90.5 t-104 -38.5q-58 0 -98.5 38t-40.5 91z" />
<glyph unicode="N" horiz-adv-x="1310" d="M129 115v1208q0 60 42.5 99.5t107.5 39.5q41 0 79 -21t60 -55q113 -196 475 -831v774q0 54 43 93.5t102 39.5t100.5 -39t41.5 -94v-1208q0 -58 -43 -98.5t-109 -40.5q-40 0 -78.5 19.5t-58.5 51.5l-475 828v-766q0 -54 -43.5 -93.5t-102.5 -39.5t-100 39t-41 94z" />
<glyph unicode="O" horiz-adv-x="1249" d="M92 520v406q0 89 18.5 167.5t59.5 147t102 117t151 76.5t202 28t202 -28t151 -76.5t102 -117t59 -146.5t18 -168v-406q0 -113 -34 -210t-99 -170.5t-167.5 -115.5t-231.5 -42t-232 42t-168 115.5t-99 170.5t-34 210zM379 520q0 -128 62 -203t184 -75t183.5 75t61.5 203 v406q0 276 -245 276q-246 0 -246 -276v-406z" />
<glyph unicode="P" horiz-adv-x="1167" d="M129 117v1179q0 60 47.5 104t112.5 44h301q112 0 201.5 -26t148.5 -70.5t98.5 -106.5t56.5 -130t17 -146q0 -224 -140.5 -348.5t-381.5 -124.5h-174v-375q0 -54 -43 -94.5t-101 -40.5q-57 0 -100 40t-43 95zM416 752h174q235 0 235 215q0 217 -235 217h-174v-432z" />
<glyph unicode="Q" horiz-adv-x="1249" d="M92 520v406q0 89 18.5 167.5t59.5 147t102 117t151 76.5t202 28t202 -28t151 -76.5t102 -117t59 -146.5t18 -168v-406q0 -195 -96.5 -336t-278.5 -184q22 -104 90 -104h60q64 0 102.5 -33.5t38.5 -91.5q0 -35 -12.5 -59.5t-29.5 -37t-50.5 -19t-60.5 -8t-74 -1.5 q-138 0 -228 93t-118 253q-198 37 -303 180.5t-105 347.5zM379 520q0 -128 62 -203t184 -75t183.5 75t61.5 203v406q0 276 -245 276q-246 0 -246 -276v-406z" />
<glyph unicode="R" horiz-adv-x="1259" d="M129 117v1179q0 60 46.5 104t109.5 44h356q139 0 241 -37t158.5 -100.5t82.5 -137t26 -159.5q0 -149 -75 -249.5t-210 -144.5l281 -421q22 -37 22 -72q0 -14 -4 -28q-13 -47 -55 -79t-88 -32q-80 0 -121 63l-344 539h-139v-469q0 -54 -44 -94.5t-102 -40.5q-57 0 -99 40 t-42 95zM416 844h229q105 0 161 43t56 123q0 174 -229 174h-217v-340z" />
<glyph unicode="S" horiz-adv-x="1077" d="M63 178q0 51 40 90t96 39q35 0 102 -24q3 -1 18.5 -6t21.5 -7t22 -7t25.5 -7t25.5 -5t28.5 -5t29 -3t32.5 -1q105 0 159 45.5t54 130.5q0 103 -84 139q-65 27 -150 55q-56 17 -87.5 27.5t-82 31.5t-80 41t-65.5 52.5t-55.5 70t-33 89.5t-13.5 114q0 197 128 310.5 t347 113.5q55 0 117 -7.5t132.5 -26t116 -57.5t45.5 -93q0 -53 -39 -91t-104 -38q-13 0 -27 2.5t-23 4.5t-26 7.5t-24 7.5q-86 31 -156 31q-40 0 -73 -7.5t-61.5 -24.5t-44.5 -48t-16 -75q0 -99 86 -138q64 -33 148 -55q44 -14 68 -22t65.5 -23.5t65.5 -28t58.5 -33.5 t54.5 -41.5t43 -50t35.5 -62t21 -74.5t8.5 -89q0 -139 -66.5 -241.5t-181.5 -154.5t-262 -52q-62 0 -133.5 11t-142 33t-117 61.5t-46.5 90.5z" />
<glyph unicode="T" horiz-adv-x="1071" d="M31 1313q0 46 43 88.5t100 42.5h721q57 0 101 -38.5t44 -92.5q0 -52 -43 -90.5t-102 -38.5h-217v-1071q0 -53 -42.5 -92t-100.5 -39q-59 0 -101.5 39t-42.5 92v1071h-217q-61 0 -102 38t-41 91z" />
<glyph unicode="U" horiz-adv-x="1253" d="M113 492v835q0 58 41.5 96.5t103.5 38.5q57 0 99 -40t42 -95v-835q0 -115 57.5 -182.5t170.5 -67.5q111 0 168 68t57 182v835q0 55 41 95t100 40q62 0 105 -40t43 -95v-835q0 -226 -138 -368t-376 -142q-241 0 -377.5 142t-136.5 368z" />
<glyph unicode="V" horiz-adv-x="1193" d="M25 1331q0 57 43 94t104 37q39 0 80 -27t55 -69l252 -791q20 -65 37 -200q17 135 37 200l250 791q14 41 56 68.5t83 27.5q64 0 105.5 -36.5t41.5 -94.5q0 -30 -6 -45l-399 -1165q-24 -68 -61.5 -103.5t-106.5 -35.5q-68 0 -105.5 36t-60.5 103l-399 1165q-6 15 -6 45z " />
<glyph unicode="W" horiz-adv-x="1699" d="M25 1333q0 54 47.5 88.5t105.5 34.5q48 0 85 -25t48 -73l135 -529q13 -49 23 -106t20 -126.5t17 -107.5q6 32 23.5 154.5t33.5 185.5l121 482q21 81 54 116t112 35q73 0 109 -37.5t55 -113.5l119 -482q13 -50 22.5 -107t19.5 -126.5t17 -108.5q6 36 17 108t21 128t23 106 l131 523q12 49 48 76.5t84 27.5q60 0 109.5 -32.5t49.5 -92.5q0 -14 -4 -26l-307 -1194q-17 -57 -58 -93t-110 -36q-68 0 -110.5 37t-59.5 94l-121 501q-12 47 -21 101.5t-18.5 123t-15.5 103.5q-6 -35 -15.5 -103.5t-18.5 -123t-21 -101.5l-123 -505q-39 -127 -168 -127 q-59 0 -107 39.5t-63 89.5l-301 1183z" />
<glyph unicode="X" horiz-adv-x="1134" d="M25 115q0 37 20 69l354 566l-325 514q-17 34 -17 69q0 50 41.5 89.5t96.5 39.5q85 0 141 -94l231 -381l232 381q65 94 143 94q54 0 94.5 -38.5t40.5 -92.5q0 -26 -18 -67l-324 -514l355 -566q20 -32 20 -69q0 -51 -42 -92t-95 -41q-81 0 -133 81l-273 451l-272 -451v3 q-52 -84 -131 -84q-55 0 -97 41t-42 92z" />
<glyph unicode="Y" horiz-adv-x="1085" d="M25 1329q0 53 44.5 93t100.5 40q35 0 67 -15.5t50 -45.5l256 -508l254 508q35 61 118 61q56 0 101 -40t45 -93q0 -17 -14 -59l-359 -705v-448q0 -55 -42 -95t-103 -40t-103.5 39.5t-42.5 95.5v448l-360 705q-12 28 -12 59z" />
<glyph unicode="Z" horiz-adv-x="1073" d="M39 139q0 32 29 90q94 156 283.5 465.5t295.5 485.5h-463q-60 0 -100.5 37.5t-40.5 93.5q0 55 41 94t100 39h695q64 0 106.5 -39.5t42.5 -97.5q0 -40 -29 -88l-583 -955h473q58 0 100.5 -38t42.5 -93t-42 -94t-101 -39h-703q-62 0 -104.5 40.5t-42.5 98.5z" />
<glyph unicode="[" horiz-adv-x="684" d="M137 -100v1597q0 66 47 96.5t121 30.5h209q52 0 94.5 -37.5t42.5 -87.5q0 -67 -48 -98t-116 -31h-65v-1343h65q72 0 118 -30t46 -97t-49 -98t-117 -31h-209q-55 0 -97 39t-42 90z" />
<glyph unicode="\" horiz-adv-x="737" d="M-49 1407q-5 48 28 91t84 52q50 9 92.5 -14t61.5 -70l535 -1409q17 -48 -18.5 -92t-92.5 -55q-50 -8 -94 15.5t-62 70.5l-524 1380q-7 14 -10 31z" />
<glyph unicode="]" horiz-adv-x="684" d="M29 -100q0 47 25.5 77t60.5 40t80 10h65v1343h-65q-44 0 -78.5 10t-61 40.5t-26.5 78.5q0 66 49 95.5t119 29.5h209q52 0 95.5 -40t43.5 -87v-1597q0 -54 -40.5 -91.5t-98.5 -37.5h-209q-44 0 -79.5 11t-62 41.5t-26.5 76.5z" />
<glyph unicode="^" horiz-adv-x="749" d="M-16 1069q3 52 53 102l225 256q45 52 111 52q65 0 110 -52q38 -42 113 -128t113 -128q50 -50 53 -102q0 -51 -33.5 -82t-89.5 -31q-30 0 -59.5 14.5t-42.5 35.5q-26 29 -55 63.5t-53 62.5t-56 62l-164 -188q-15 -20 -45 -35t-58 -15q-55 0 -88.5 31t-33.5 82z" />
<glyph unicode="_" horiz-adv-x="1310" d="M-90 -322q0 54 43 93t98 39h1209q55 0 98 -39t43 -93q0 -55 -40.5 -92t-100.5 -37h-1209q-60 0 -100.5 37t-40.5 92z" />
<glyph unicode="`" horiz-adv-x="485" d="M104 1409q0 41 32 70.5t69 29.5q31 0 46.5 -8.5t37.5 -30.5l16 -16l166 -162q16 -14 16 -51q0 -44 -30 -72t-74 -28q-21 0 -38 6.5t-25 12.5t-29 24l-168 168q-19 27 -19 57z" />
<glyph unicode="a" horiz-adv-x="1069" d="M72 309v6q0 314 405 314q92 0 162 -21v66q0 141 -156 141q-58 0 -133 -33q-2 -1 -13 -5.5t-18 -7t-20 -5t-27 -2.5q-59 0 -88.5 37t-29.5 82q0 44 30.5 77.5t81.5 53.5t111.5 29.5t126.5 9.5q218 0 318 -106t100 -318v-381q0 -22 6.5 -35t11 -17t24 -10t23.5 -8 q47 -18 47 -78q0 -52 -34 -79t-113 -27q-59 0 -99.5 19t-74.5 67q-115 -92 -277 -92q-175 0 -269.5 87t-94.5 236zM352 307q0 -50 30 -72t97 -22q91 0 160 53v148q-82 16 -145 16q-82 0 -112 -31.5t-30 -85.5v-6z" />
<glyph unicode="b" horiz-adv-x="1095" d="M131 330v1024q0 52 38 88.5t103 36.5t103.5 -36.5t38.5 -88.5v-361q103 58 223 58q186 0 276.5 -93t90.5 -247v-344q0 -169 -113 -275t-324 -106q-202 0 -319 97.5t-117 246.5zM414 330q0 -57 41.5 -90t113.5 -33q75 0 113.5 36.5t38.5 102.5v375q0 117 -141 117 q-102 0 -166 -58v-450z" />
<glyph unicode="c" horiz-adv-x="907" d="M92 377v276q0 174 107 282.5t317 108.5q54 0 107.5 -7.5t111.5 -25t94.5 -55t36.5 -90.5q0 -44 -28.5 -74t-98.5 -30q-32 0 -67 12q-7 3 -24 9.5t-26.5 10t-24.5 7.5t-31 6t-34 2q-157 0 -157 -156v-276q0 -156 157 -156q18 0 33.5 1.5t32.5 6.5t24 7.5t27 10.5t23 9 q30 12 63 12q72 0 101.5 -30.5t29.5 -73.5q0 -42 -25 -74.5t-63 -51.5t-87.5 -31.5t-92 -16.5t-84.5 -4q-106 0 -187.5 30t-132 83.5t-76.5 123.5t-26 154z" />
<glyph unicode="d" horiz-adv-x="1101" d="M92 387v231q0 424 389 424q90 0 181 -38v350q0 54 37.5 89.5t103.5 35.5q65 0 103 -36t38 -89v-1090q0 -22 8 -35t31 -36q29 -29 29 -70q0 -58 -40.5 -91.5t-92.5 -33.5q-69 0 -123 78q-83 -45 -149.5 -67.5t-139.5 -22.5q-176 0 -275.5 109t-99.5 292zM375 387 q0 -164 133 -164q65 0 158 43q-4 28 -4 39v477q-95 27 -150 27q-73 0 -105 -46.5t-32 -144.5v-231z" />
<glyph unicode="e" horiz-adv-x="993" d="M92 344v342q0 161 114.5 263t321.5 102q196 0 299 -94.5t103 -254.5q0 -311 -398 -311q-68 0 -157 12v-67q0 -54 41.5 -84.5t122.5 -30.5q82 0 184 45q26 13 61 13q66 0 96.5 -35t30.5 -78q0 -50 -42 -87.5t-107 -56.5t-126.5 -27.5t-117.5 -8.5q-198 0 -312 100.5 t-114 257.5zM375 610q88 -8 147 -8q62 0 94.5 26t32.5 89q0 60 -30.5 87t-92.5 27q-73 0 -112 -35.5t-39 -97.5v-88z" />
<glyph unicode="f" horiz-adv-x="755" d="M131 115v964q0 98 33 175t91 125t132.5 73t161.5 27q20 0 37.5 -1t50 -4.5t58 -13t51 -23.5t39.5 -39t14 -57q0 -56 -41 -89t-99 -33q-19 0 -60 6t-60 6q-61 0 -93 -39t-32 -98v-101h151q57 0 96 -35.5t39 -87.5t-39 -86t-96 -34h-151v-635q0 -54 -38 -88.5t-104 -34.5 t-103.5 34.5t-37.5 88.5z" />
<glyph unicode="g" horiz-adv-x="1091" d="M72 -164q0 61 30 114.5t101 110.5q-43 74 -43 168q0 80 57 150q-131 110 -131 283q0 171 109.5 280t300.5 109q131 0 274 -70q40 55 88 84t92 29q54 0 93.5 -34.5t39.5 -84.5q0 -47 -32 -74q-59 -52 -76 -75.5t-17 -63.5v-115q0 -166 -112 -269.5t-328 -103.5 q-61 0 -112 11q-13 -35 -13 -47q0 -66 58 -66h86q137 0 240.5 -32.5t167 -105t63.5 -177.5q0 -161 -135 -257t-347 -96q-203 0 -328.5 90t-125.5 242zM354 -143q0 -58 44 -89.5t132 -31.5q89 0 142 30.5t53 83.5q0 91 -184 91l-150 2q-37 -46 -37 -86zM369 657 q0 -161 157 -161q75 0 112.5 39t37.5 110v143q-81 35 -146 35q-78 0 -119.5 -43t-41.5 -123z" />
<glyph unicode="h" horiz-adv-x="1120" d="M131 113v1249q0 51 40 89t99 38q60 0 101 -36.5t41 -90.5v-367q91 56 194 56q190 0 285.5 -97t95.5 -262v-579q0 -53 -41.5 -90t-99.5 -37q-60 0 -100.5 36.5t-40.5 90.5v598q0 60 -27.5 88t-89.5 28q-45 0 -93.5 -17.5t-82.5 -49.5v-647q0 -54 -40 -90.5t-100 -36.5 t-100.5 36.5t-40.5 90.5z" />
<glyph unicode="i" horiz-adv-x="583" d="M131 1319q0 60 46.5 101.5t113.5 41.5t113.5 -42t46.5 -101q0 -60 -46.5 -101.5t-113.5 -41.5t-113.5 42t-46.5 101zM150 113v807q0 51 40.5 87.5t100.5 36.5t100.5 -36.5t40.5 -87.5v-807q0 -54 -40.5 -90.5t-100.5 -36.5t-100.5 36.5t-40.5 90.5z" />
<glyph unicode="j" horiz-adv-x="583" d="M-84 -326q-6 20 -6 38q0 37 24 62q37 39 89 48q127 23 127 158v940q0 51 40.5 87.5t100.5 36.5t100.5 -36.5t40.5 -87.5v-934q0 -179 -105.5 -288.5t-283.5 -109.5q-47 0 -81.5 23.5t-45.5 62.5zM131 1319q0 60 46.5 101.5t113.5 41.5t113.5 -42t46.5 -101 q0 -60 -46.5 -101.5t-113.5 -41.5t-113.5 42t-46.5 101z" />
<glyph unicode="k" horiz-adv-x="997" d="M131 113v1239q0 54 40.5 90.5t100.5 36.5t101 -36.5t41 -90.5v-650l282 306q34 34 97 34q59 0 98 -34t39 -86q0 -50 -39 -86h2l-250 -265l301 -397q23 -33 23 -76q-3 -51 -42 -81.5t-96 -30.5q-74 0 -116 57l-277 375l-22 -21v-284q0 -54 -41 -90.5t-101 -36.5 t-100.5 36.5t-40.5 90.5z" />
<glyph unicode="l" horiz-adv-x="548" d="M131 227v1125q0 52 41 89.5t100 37.5q60 0 101 -36.5t41 -90.5v-1100q0 -34 4.5 -48t25.5 -36q3 -4 11 -12.5t11 -12t7.5 -11.5t6 -16.5t1.5 -19.5q0 -55 -40 -82.5t-113 -27.5q-29 0 -52.5 4t-51.5 19t-47.5 40t-32.5 70.5t-13 107.5z" />
<glyph unicode="m" horiz-adv-x="1675" d="M86 897q0 54 39 87.5t94 33.5q65 0 109 -57q145 90 276 90q125 0 238 -90q88 47 158.5 68.5t150.5 21.5q180 0 285.5 -100.5t105.5 -266.5v-571q0 -55 -36.5 -90t-104.5 -35t-104.5 35t-36.5 90v567q0 56 -32 92.5t-87 36.5q-76 0 -164 -72q4 -36 4 -53v-571 q0 -55 -36.5 -90t-104.5 -35t-105 35t-37 90v530q0 81 -22 123.5t-84 42.5q-70 0 -174 -53q2 -6 2 -23v-620q0 -55 -36.5 -90t-104.5 -35t-105 35t-37 90v620q0 32 -3 50.5t-5 22.5t-8 13q-35 47 -35 78z" />
<glyph unicode="n" horiz-adv-x="1124" d="M86 899q0 51 39 85t98 34q62 0 109 -60q134 89 270 89q189 0 288 -107.5t99 -292.5v-534q0 -54 -37.5 -89.5t-103.5 -35.5t-103.5 35.5t-37.5 89.5v534q0 76 -36 121t-98 45q-64 0 -157 -43q4 -28 4 -39v-618q0 -55 -36.5 -90t-104.5 -35t-105 35t-37 90v620 q0 32 -3 50.5t-5 22.5t-8 13q-22 29 -28.5 44.5t-6.5 35.5z" />
<glyph unicode="o" horiz-adv-x="1073" d="M92 367v305q0 168 117 274.5t328 106.5t327.5 -106.5t116.5 -274.5v-305q0 -168 -116.5 -274.5t-327.5 -106.5t-328 106.5t-117 274.5zM375 367q0 -66 42 -103t120 -37t119.5 37t41.5 103v307q0 64 -41.5 100.5t-119.5 36.5t-120 -36.5t-42 -100.5v-307z" />
<glyph unicode="p" horiz-adv-x="1081" d="M86 893q0 55 41.5 90t93.5 35q60 0 107 -57q82 46 147 68t141 22q174 0 273.5 -110.5t99.5 -291.5v-237q0 -424 -391 -424q-91 0 -178 41v-338q0 -54 -37.5 -89.5t-103.5 -35.5q-65 0 -103.5 36t-38.5 89v1040q0 62 -22 96q-29 36 -29 66zM416 770q4 -28 4 -39v-483 q91 -27 149 -27q74 0 106 46t32 145v237q0 80 -34 122t-100 42q-64 0 -157 -43z" />
<glyph unicode="q" horiz-adv-x="1095" d="M92 375v289q0 172 112.5 279.5t323.5 107.5q202 0 319.5 -99.5t117.5 -251.5v-968q0 -55 -37 -90t-105 -35t-104.5 35t-36.5 90v309q-87 -53 -209 -53q-103 0 -178.5 29t-119 82.5t-63.5 121.5t-20 154zM375 375q0 -154 145 -154q98 0 162 53v426q0 51 -41 80t-111 29 q-78 0 -116.5 -38t-38.5 -107v-289z" />
<glyph unicode="r" horiz-adv-x="772" d="M86 895q0 54 41 88.5t98 34.5q59 0 109 -64q150 88 254 88q168 0 168 -122q0 -60 -42 -96q-39 -34 -93 -33h-9q-38 3 -69 3q-19 0 -35 -1q-43 -3 -92 -23q4 -28 4 -39v-618q0 -54 -40.5 -90.5t-100.5 -36.5t-101 36.5t-41 90.5v618q0 62 -22 96q-29 36 -29 68z" />
<glyph unicode="s" horiz-adv-x="913" d="M76 145q0 47 38 84t95 37q30 0 103.5 -22.5t127.5 -22.5q58 0 91.5 20.5t33.5 61.5q0 44 -43 66q-28 15 -78 32.5t-94 31t-94 39t-85.5 56.5t-59 84t-23.5 121q0 145 102 231.5t293 86.5q56 0 109 -8t106 -26t85 -54t32 -86q0 -41 -22.5 -66t-47 -32t-51.5 -7 q-32 0 -94 21.5t-115 21.5q-118 0 -118 -74q0 -43 61 -67q26 -11 80.5 -29.5t93.5 -32.5t88 -42t80 -60t52.5 -84t21.5 -117q0 -151 -104.5 -237t-295.5 -86q-56 0 -114 7.5t-118 24t-98 49.5t-38 78z" />
<glyph unicode="t" horiz-adv-x="739" d="M131 426v795q0 54 37.5 89.5t103.5 35.5q65 0 103.5 -36t38.5 -89v-228h151q57 0 96 -35.5t39 -87.5t-39 -86t-96 -34h-151v-310q0 -121 20 -162.5t90 -41.5q11 0 23 1l12 1q94 0 131 -26t37 -85q0 -43 -15.5 -71t-45.5 -41.5t-61 -18t-75 -4.5q-94 0 -163 19t-114.5 53 t-72.5 89t-38 120.5t-11 152.5z" />
<glyph unicode="u" horiz-adv-x="1124" d="M131 387v535q0 54 37.5 88t103.5 34t104 -34t38 -88v-535q0 -164 133 -164q65 0 158 43q-5 35 -5 39v617q0 55 37 88.5t105 33.5t104.5 -33.5t36.5 -88.5v-658q0 -22 8 -35t31 -36q29 -29 29 -70q0 -58 -40.5 -91.5t-90.5 -33.5q-71 0 -125 78q-127 -90 -283 -90 q-182 0 -281.5 108.5t-99.5 292.5z" />
<glyph unicode="v" horiz-adv-x="962" d="M33 924q0 54 41 88.5t98 34.5q42 0 80 -25t51 -64l113 -344q16 -49 27.5 -105.5t22.5 -126t19 -106.5q8 39 19.5 107.5t22.5 125t26 105.5l106 342q13 39 52 63.5t82 24.5q57 0 98 -34t41 -88q0 -21 -4 -35l-281 -776q-25 -67 -61.5 -96t-100.5 -29q-66 0 -102.5 28 t-60.5 92l-285 783q-4 14 -4 35z" />
<glyph unicode="w" horiz-adv-x="1423" d="M31 922q0 48 41 85t100 37q46 0 83.5 -24.5t49.5 -67.5l88 -338q12 -45 19 -97t12 -115.5t10 -98.5q5 35 12 98.5t15 115.5t20 97l82 326q13 46 53 75t99 29q58 0 97 -29t50 -75l80 -326q11 -45 19.5 -97t16.5 -117.5t13 -98.5q5 36 10 99.5t12 116t19 97.5l88 338 q10 38 49.5 65t83.5 27q57 0 98.5 -35.5t41.5 -88.5l-1 -9q-1 -9 -1 -12l-238 -793q-20 -63 -55.5 -91.5t-106.5 -28.5q-55 0 -97.5 27t-55.5 75l-86 328q-10 37 -16.5 77t-13 94.5t-9.5 78.5q-3 -20 -10 -77.5t-13.5 -96.5t-15.5 -76l-84 -328q-15 -54 -53 -78t-103 -24 q-123 0 -162 123l-237 786q-4 10 -4 27z" />
<glyph unicode="x" horiz-adv-x="964" d="M31 113q0 35 20 61q46 63 133 176.5t133 175.5q-238 317 -245 326q-25 28 -25 66q0 52 41 89t100 37q28 0 50.5 -7t41 -23.5t26 -26t24.5 -31.5l155 -211l164 228q26 36 53.5 53.5t73.5 17.5q52 0 95.5 -35.5t43.5 -86.5q0 -41 -20 -66l-246 -330l264 -348q21 -26 21 -63 q0 -54 -40 -91.5t-103 -37.5q-47 0 -73 16t-56 57q-37 53 -91 125.5t-90 122.5q-176 -240 -190 -260q-46 -61 -117 -61q-61 0 -102 35.5t-41 91.5z" />
<glyph unicode="y" horiz-adv-x="970" d="M33 924q0 52 40.5 86t100.5 34q43 0 77.5 -22t51.5 -64l129 -344q17 -43 38 -127.5t28 -107.5q5 23 16 73.5t20.5 89.5t20.5 72l111 344q13 42 50.5 64t82.5 22q56 0 98.5 -35t42.5 -89q0 -22 -6 -37l-250 -729q-79 -232 -123 -319q-81 -160 -199 -215q-77 -36 -180 -36 q-62 0 -102.5 34.5t-40.5 88.5q0 48 37 84t98 39q66 3 106 54.5t78 174.5l-315 813q-10 25 -10 52z" />
<glyph unicode="z" horiz-adv-x="888" d="M20 131q0 42 25 76l444 586h-313q-57 0 -96 34.5t-39 85.5q0 52 39 86.5t96 34.5h543q61 0 103 -34.5t42 -92.5q0 -46 -28 -84l-443 -581h338q58 0 97.5 -35t39.5 -86t-39.5 -86t-97.5 -35h-567q-58 0 -101 38t-43 93z" />
<glyph unicode="{" horiz-adv-x="894" d="M43 498q0 40 12 66t34.5 37.5t37 15.5t37.5 6q25 3 37.5 6.5t28.5 14.5t23.5 34t10.5 61q2 24 7.5 117.5t15.5 245.5q9 133 115 208.5t274 75.5q28 0 50 -2.5t47 -10.5t41 -22.5t27 -41t11 -62.5q0 -44 -15.5 -71t-39 -34t-50.5 -9t-51 4q-32 4 -49 4q-31 0 -56 -18.5 t-26 -49.5q-1 -8 -4 -78t-6.5 -144.5t-7.5 -107.5q-9 -79 -55.5 -139t-141.5 -106q186 -91 195 -248l20 -330q1 -28 27.5 -47.5t52.5 -17.5q2 0 26 2t27 2q22 2 32 2t32.5 -1t34.5 -8t27 -18.5t21.5 -33.5t6.5 -52q0 -45 -15 -74.5t-43 -43t-55 -18.5t-63 -5 q-163 0 -272.5 78t-116.5 206l-23 367q-2 38 -12.5 63t-28.5 35t-29.5 13t-29.5 4q-24 2 -40.5 6.5t-37.5 16.5t-32 37.5t-11 64.5z" />
<glyph unicode="|" horiz-adv-x="546" d="M137 -328v1749q0 50 39.5 87.5t95.5 37.5t96 -37.5t40 -87.5v-1749q0 -51 -39.5 -88t-96.5 -37t-96 37t-39 88z" />
<glyph unicode="}" horiz-adv-x="894" d="M53 -250q0 32 9 53.5t20.5 33t35 17t41 6.5t50.5 1q29 -4 49 -4q40 0 60 18t22 45l20 330q9 157 195 248q-89 41 -140.5 106.5t-56.5 138.5q-6 76 -9.5 137t-4.5 92t-1.5 52.5t-1 31.5t-1.5 17q-4 32 -26.5 50t-53.5 18q-19 0 -51 -4q-24 -6 -51 -4t-50.5 9t-39 34 t-15.5 71q0 36 11 62.5t27 41t41 22.5t47 10.5t50 2.5q168 0 274 -75.5t115 -208.5q8 -110 12.5 -186t6 -101.5t2.5 -43.5t2 -32q3 -38 10.5 -61t23.5 -34t28.5 -14.5t37.5 -6.5q23 -2 37.5 -6t37 -15.5t34.5 -37.5t12 -66t-11.5 -66t-34 -37.5t-37.5 -15.5t-38 -6 q-21 -2 -35 -6t-29.5 -15t-24.5 -34.5t-11 -59.5l-23 -367q-7 -126 -116 -205t-273 -79q-28 0 -50 2.5t-47 11.5t-41 24t-27 41.5t-11 63.5z" />
<glyph unicode="~" horiz-adv-x="1015" d="M125 637q0 84 64.5 140.5t150.5 56.5q60 0 112.5 -25t93 -49.5t70.5 -24.5q21 0 37 9.5t27 22.5t22.5 26t28.5 22.5t39 9.5q48 0 84.5 -33.5t36.5 -84.5q0 -73 -72 -127t-149 -54q-56 0 -107.5 23t-94.5 48t-71 28q-20 3 -36.5 -5t-28.5 -21.5t-23.5 -27.5t-30 -24 t-40.5 -10q-40 0 -75 28.5t-38 71.5z" />
<glyph unicode="&#xa2;" horiz-adv-x="907" d="M92 438v174q0 167 99 275t294 117v88q0 22 15.5 37.5t38.5 15.5t38 -15.5t15 -37.5v-93q66 -7 118.5 -23t94 -55t41.5 -96q0 -44 -28.5 -74t-98.5 -30q-33 0 -68 12l-59 25v-467q18 5 59 26q33 13 64 13q72 0 101.5 -31.5t29.5 -73.5t-23 -75t-62 -52.5t-80 -30.5 t-89 -16v-108q0 -22 -15 -38t-38 -16t-38.5 16t-15.5 38v104q-194 7 -293.5 115t-99.5 276zM375 438q0 -131 110 -151v477q-110 -23 -110 -152v-174z" />
<glyph unicode="&#xa5;" d="M35 1329q0 53 44.5 93t100.5 40q35 0 67 -15.5t50 -45.5l256 -508l254 508q35 61 119 61q56 0 100.5 -40t44.5 -93q0 -17 -14 -59l-262 -514h102q31 0 55.5 -22t24.5 -54t-23 -54t-57 -22h-180l-19 -39v-76h199q32 0 56 -22t24 -53q0 -32 -23 -54t-57 -22h-199v-221 q0 -50 -34.5 -88t-88.5 -45q-16 -4 -24 -4q-19 0 -31 6q-49 9 -80.5 46t-31.5 85v221h-203q-34 0 -57 22t-23 54q0 31 24 53t56 22h203v76l-21 39h-182q-34 0 -57 22t-23 54t24.5 54t55.5 22h104l-262 514q-12 28 -12 59z" />
<glyph unicode="&#xa8;" horiz-adv-x="907" d="M164 1290q0 51 38 88t93 37q57 0 96 -36t39 -89q0 -54 -39 -91.5t-96 -37.5q-55 0 -93 38t-38 91zM528 1290q0 51 40.5 88t95.5 37q56 0 94.5 -36.5t38.5 -88.5q0 -54 -38.5 -91.5t-94.5 -37.5q-55 0 -95.5 38t-40.5 91z" />
<glyph unicode="&#xa9;" horiz-adv-x="1515" d="M131 641q0 195 71 342.5t214 232t342 84.5t341.5 -84.5t213.5 -232t71 -342.5t-71 -342.5t-213.5 -232t-341.5 -84.5t-342 84.5t-214 232t-71 342.5zM254 641q0 -242 132.5 -389.5t371.5 -147.5t371.5 147.5t132.5 389.5t-132.5 389.5t-371.5 147.5t-371.5 -147.5 t-132.5 -389.5zM463 580v125q0 134 78 217.5t235 83.5q36 0 75 -6t79.5 -19t67 -38t26.5 -58q0 -30 -22 -53t-54 -23q-6 0 -26 4q-66 39 -131 39q-140 0 -140 -147v-125q0 -74 33.5 -111t106.5 -37q10 0 20.5 1t18 2t18 4t15.5 4.5t16 6t13.5 6t15 7t14.5 6.5q15 6 26 6 q32 0 54 -23.5t22 -54.5q0 -32 -26.5 -56.5t-67 -37t-79.5 -18.5t-75 -6q-157 0 -235 83t-78 218z" />
<glyph unicode="&#xab;" horiz-adv-x="882" d="M84 524l311 469q17 28 33.5 41t42.5 13q29 0 53.5 -22.5t24.5 -53.5q0 -24 -10 -39l-269 -404l287 -426q10 -15 10 -34q0 -35 -23 -59.5t-59 -24.5q-26 0 -41.5 12t-35.5 43zM412 524l233 353q17 27 33.5 40t42.5 13q29 0 53.5 -22.5t24.5 -53.5q0 -23 -11 -39l-190 -291 l190 -291q11 -17 11 -38q0 -31 -24.5 -53.5t-53.5 -22.5q-26 0 -42.5 13t-33.5 40z" />
<glyph unicode="&#xad;" horiz-adv-x="899" d="M57 614q0 51 40 88t98 37h510q57 0 96 -37t39 -88q0 -54 -39 -89.5t-96 -35.5h-510q-59 0 -98.5 35.5t-39.5 89.5z" />
<glyph unicode="&#xae;" horiz-adv-x="1433" d="M131 866q0 183 66 321t200 218t320 80t320 -80t200 -218t66 -321q0 -177 -66 -310.5t-200 -210.5t-320 -77t-320 77t-200 210.5t-66 310.5zM254 866q0 -215 121 -345t342 -130t342 130t121 345q0 224 -121 360t-342 136t-342 -136t-121 -360zM496 627v481q0 35 27 62.5 t61 27.5h137q125 0 184.5 -59t59.5 -144q0 -124 -109 -174l121 -184q20 -25 8 -53.5t-55 -28.5q-74 0 -111 49l-125 193h-35v-170q0 -28 -26 -50t-58 -22q-31 0 -55 21t-24 51zM659 936h84q58 0 58 59q0 62 -64 62h-78v-121z" />
<glyph unicode="&#xb4;" horiz-adv-x="647" d="M180 1241q0 28 17 51l165 162l17 16q15 15 23.5 21.5t23.5 12t37 5.5q37 0 68.5 -29.5t31.5 -70.5q0 -31 -18 -57l-168 -168q-21 -18 -29 -24t-25 -12.5t-38 -6.5q-44 0 -74.5 28.5t-30.5 71.5z" />
<glyph unicode="&#xb8;" horiz-adv-x="698" d="M86 -322q0 27 19.5 43.5t50.5 16.5q18 0 69.5 -9.5t79.5 -9.5q96 0 96 45q0 23 -25 35t-91 23q-56 11 -67 17q-28 17 -25 79l28 172h160l-21 -158q205 -17 205 -174q0 -88 -64.5 -144t-168.5 -56q-95 0 -170.5 31.5t-75.5 88.5z" />
<glyph unicode="&#xbb;" horiz-adv-x="882" d="M84 195q0 23 10 38l191 291l-191 291q-10 15 -10 39q0 31 24.5 53.5t53.5 22.5q26 0 42.5 -13t33.5 -40l233 -353l-233 -352q-17 -27 -33.5 -40t-42.5 -13q-29 0 -53.5 22.5t-24.5 53.5zM315 68q0 18 11 34l286 426l-268 404q-10 15 -10 39q0 31 24.5 53.5t53.5 22.5 q26 0 42 -13t33 -41l312 -469l-324 -485q-20 -31 -36 -43t-42 -12q-36 0 -59 24.5t-23 59.5z" />
<glyph unicode="&#x2c6;" horiz-adv-x="892" d="M172 1223q3 46 55 92l162 125q33 26 76 26t76 -26l161 -125q53 -47 56 -92q0 -38 -31 -66.5t-72 -28.5q-19 0 -39 8t-41.5 24.5t-36.5 29.5t-39 37t-34 33q-9 -9 -34 -33t-39.5 -37t-36.5 -30t-42 -24.5t-39 -7.5q-41 0 -71.5 28.5t-30.5 66.5z" />
<glyph unicode="&#x2da;" horiz-adv-x="1251" d="M352 1319q0 93 65.5 158t160.5 65q93 0 158 -65t65 -158q0 -94 -64.5 -158.5t-158.5 -64.5q-95 0 -160.5 64.5t-65.5 158.5zM487 1319q0 -37 27 -63.5t64 -26.5t63.5 26.5t26.5 63.5t-26.5 64.5t-63.5 27.5t-64 -27.5t-27 -64.5z" />
<glyph unicode="&#x2dc;" horiz-adv-x="849" d="M80 1260q0 69 54.5 116t125.5 47q49 0 93 -20.5t77.5 -41t58.5 -20.5q21 0 37 11.5t25.5 25.5t26.5 25.5t40 11.5q40 0 70.5 -28.5t30.5 -69.5q0 -61 -60 -105.5t-124 -44.5q-47 0 -90.5 18.5t-79 39.5t-58.5 24q-20 3 -37 -8t-27 -25.5t-28 -27t-41 -12.5 q-34 0 -62 23.5t-32 60.5z" />
<glyph unicode="&#x400;" horiz-adv-x="1052" d="M129 145v1153q0 56 46.5 101t111.5 45h555q58 0 100.5 -39.5t42.5 -93.5q0 -55 -42 -91t-101 -36h-426v-330h387q56 0 98.5 -37.5t42.5 -91.5q0 -56 -40.5 -93.5t-100.5 -37.5h-387v-334h446q58 0 101 -37.5t43 -89.5q0 -55 -42.5 -94t-101.5 -39h-543q-84 0 -137 34 t-53 111zM333 1819q0 41 32 70.5t69 29.5q31 0 46.5 -8.5t37.5 -30.5l16 -16l166 -162q16 -14 16 -51q0 -44 -30 -72t-74 -28q-21 0 -38 6.5t-25 12.5t-29 24l-168 168q-19 27 -19 57z" />
<glyph unicode="&#x401;" horiz-adv-x="1052" d="M129 145v1153q0 56 46.5 101t111.5 45h555q58 0 100.5 -39.5t42.5 -93.5q0 -55 -42 -91t-101 -36h-426v-330h387q56 0 98.5 -37.5t42.5 -91.5q0 -56 -40.5 -93.5t-100.5 -37.5h-387v-334h446q58 0 101 -37.5t43 -89.5q0 -55 -42.5 -94t-101.5 -39h-543q-84 0 -137 34 t-53 111zM260 1700q0 51 38 88t93 37q57 0 96 -36t39 -89q0 -54 -39 -91.5t-96 -37.5q-55 0 -93 38t-38 91zM625 1700q0 51 40 88t95 37q56 0 94.5 -36.5t38.5 -88.5q0 -54 -38.5 -91.5t-94.5 -37.5q-55 0 -95 38t-40 91z" />
<glyph unicode="&#x402;" horiz-adv-x="1400" d="M31 1311q0 49 42.5 91t100.5 42h721q57 0 101 -38.5t44 -92.5q0 -52 -43 -90.5t-102 -38.5h-299v-271q101 39 205 39q236 0 363.5 -122t127.5 -361q0 -224 -101.5 -355.5t-277.5 -131.5q-97 0 -163 44.5t-66 106.5q0 52 39 87.5t94 35.5q23 0 43 -7t37 -7q109 0 109 225 q0 122 -52.5 173.5t-165.5 51.5q-95 0 -192 -53v-526q0 -53 -42.5 -92t-100.5 -39q-59 0 -101.5 39t-42.5 92v1071h-135q-60 0 -101.5 39t-41.5 88z" />
<glyph unicode="&#x403;" horiz-adv-x="1030" d="M129 115v1188q0 54 45 97.5t109 43.5h557q59 0 100 -39t41 -92q0 -55 -40.5 -92t-100.5 -37h-424v-1069q0 -53 -43 -92t-101 -39q-59 0 -101 39t-42 92zM403 1651q0 28 17 51l166 162l16 16q15 15 23.5 21.5t23.5 12t37 5.5q37 0 68.5 -29.5t31.5 -70.5q0 -32 -18 -58 l-168 -168q-21 -18 -29 -24t-25 -12.5t-38 -6.5q-44 0 -74.5 28.5t-30.5 72.5z" />
<glyph unicode="&#x404;" horiz-adv-x="1069" d="M72 520v406q0 251 130.5 393.5t391.5 142.5q107 0 205 -29.5t158.5 -80.5t60.5 -109q0 -50 -38.5 -86.5t-96.5 -36.5q-14 0 -24.5 1.5t-20 5t-14 6t-15 9.5t-14.5 9l-21 12q-76 49 -170 49q-132 0 -189 -73t-57 -213v-72h320q57 0 98 -37t41 -92q0 -56 -39.5 -94.5 t-99.5 -38.5h-320v-72q0 -140 57 -213.5t189 -73.5q93 0 170 50l21 12q4 2 14.5 9t15 9.5t14 6t20 5t24.5 1.5q58 0 96.5 -36.5t38.5 -86.5q0 -58 -60.5 -109t-158.5 -80.5t-205 -29.5q-261 0 -391.5 142.5t-130.5 393.5z" />
<glyph unicode="&#x405;" horiz-adv-x="1077" d="M63 178q0 51 40 90t96 39q35 0 102 -24q3 -1 18.5 -6t21.5 -7t22 -7t25.5 -7t25.5 -5t28.5 -5t29 -3t32.5 -1q105 0 159 45.5t54 130.5q0 103 -84 139q-65 27 -150 55q-56 17 -87.5 27.5t-82 31.5t-80 41t-65.5 52.5t-55.5 70t-33 89.5t-13.5 114q0 197 128 310.5 t347 113.5q55 0 117 -7.5t132.5 -26t116 -57.5t45.5 -93q0 -53 -39 -91t-104 -38q-13 0 -27 2.5t-23 4.5t-26 7.5t-24 7.5q-86 31 -156 31q-40 0 -73 -7.5t-61.5 -24.5t-44.5 -48t-16 -75q0 -99 86 -138q64 -33 148 -55q44 -14 68 -22t65.5 -23.5t65.5 -28t58.5 -33.5 t54.5 -41.5t43 -50t35.5 -62t21 -74.5t8.5 -89q0 -139 -66.5 -241.5t-181.5 -154.5t-262 -52q-62 0 -133.5 11t-142 33t-117 61.5t-46.5 90.5z" />
<glyph unicode="&#x406;" horiz-adv-x="546" d="M129 113v1218q0 53 42 92t101 39q58 0 101 -39t43 -92v-1218q0 -53 -43 -92t-101 -39q-59 0 -101 39t-42 92z" />
<glyph unicode="&#x407;" horiz-adv-x="546" d="M-43 1700q0 51 38 88t93 37q57 0 96 -36t39 -89q0 -54 -39 -91.5t-96 -37.5q-55 0 -93 38t-38 91zM129 113v1218q0 53 42 92t101 39q58 0 101 -39t43 -92v-1218q0 -53 -43 -92t-101 -39q-59 0 -101 39t-42 92zM321 1700q0 51 40.5 88t95.5 37q56 0 94.5 -36.5t38.5 -88.5 q0 -54 -38.5 -91.5t-94.5 -37.5q-55 0 -95.5 38t-40.5 91z" />
<glyph unicode="&#x408;" horiz-adv-x="870" d="M31 123q0 57 42.5 93t90.5 36q23 0 61 -6t64 -6q97 0 131.5 59t34.5 182v850q0 55 41 93t102 38q57 0 100 -39.5t43 -91.5v-850q0 -97 -14 -172t-48 -137.5t-88 -103.5t-135.5 -63.5t-189.5 -22.5q-235 0 -235 141z" />
<glyph unicode="&#x409;" horiz-adv-x="1908" d="M31 117q0 66 40 100.5t97 34.5q8 0 22 -3t23 -3h12q47 0 56 123l71 927q0 60 47.5 104t112.5 44h518q65 0 112.5 -44t47.5 -104v-342h131q241 0 381.5 -124.5t140.5 -348.5q0 -99 -28.5 -182.5t-87.5 -152t-163 -107.5t-243 -39h-260q-65 0 -112.5 43.5t-47.5 103.5v1039 h-276l-60 -813q-8 -87 -29.5 -156t-59 -121.5t-95.5 -81t-133 -28.5q-30 0 -47.5 0.5t-43.5 3t-41.5 7.5t-33.5 14.5t-28 23t-16.5 34.5t-6.5 48zM1190 260h131q235 0 235 219q0 215 -235 215h-131v-434z" />
<glyph unicode="&#x40a;" horiz-adv-x="1818" d="M129 115v1216q0 53 42 92t101 39q58 0 101 -39t43 -92v-477h395v473q0 55 43 95t100 40q58 0 101 -40.5t43 -94.5v-373h133q241 0 381.5 -124.5t140.5 -348.5q0 -99 -28.5 -182.5t-87.5 -152t-163 -107.5t-243 -39h-260q-65 0 -112.5 43.5t-47.5 103.5v445h-395v-477 q0 -54 -43 -93.5t-101 -39.5q-60 0 -101.5 39.5t-41.5 93.5zM1098 260h133q235 0 235 219q0 215 -235 215h-133v-434z" />
<glyph unicode="&#x40b;" horiz-adv-x="1400" d="M31 1309q0 49 42.5 92t100.5 43h721q57 0 101 -38.5t44 -92.5q0 -52 -43 -90.5t-102 -38.5h-299v-279q103 47 217 47q222 0 350.5 -124t128.5 -349v-362q0 -54 -42.5 -94.5t-100.5 -40.5q-57 0 -100 40t-43 95v360q0 112 -52.5 163.5t-158.5 51.5q-102 0 -199 -53v-526 q0 -53 -42.5 -92t-100.5 -39q-59 0 -101.5 39t-42.5 92v1071h-135q-60 0 -101.5 38t-41.5 87z" />
<glyph unicode="&#x40c;" horiz-adv-x="1138" d="M129 115v1216q0 53 42 92t101 39q58 0 101 -39t43 -92v-477h24l410 549q45 59 119 59q62 0 100.5 -44t38.5 -93q0 -33 -23 -70l-403 -532l403 -535q23 -37 23 -69q0 -49 -38.5 -93t-100.5 -44q-74 0 -119 59l-412 551h-22v-477q0 -54 -43 -93.5t-101 -39.5 q-60 0 -101.5 39.5t-41.5 93.5zM492 1651q0 30 16 51l166 162l16 16q15 15 23.5 21.5t23.5 12t37 5.5q37 0 68.5 -29.5t31.5 -70.5q0 -32 -18 -58l-168 -168q-21 -18 -29 -24t-25 -12.5t-38 -6.5q-43 0 -73.5 28.5t-30.5 72.5z" />
<glyph unicode="&#x40d;" horiz-adv-x="1288" d="M129 121q0 -58 43 -98.5t109 -40.5q40 0 78.5 19.5t58.5 51.5l475 828v-766q0 -54 43 -93.5t102 -39.5t100.5 39t41.5 94v1208q0 60 -42.5 99.5t-107.5 39.5q-41 0 -79 -21t-60 -55q-113 -196 -475 -831v774q0 54 -43.5 93.5t-102.5 39.5t-100 -39t-41 -94v-1208z M350 1819q0 41 32 70.5t69 29.5q31 0 46.5 -8.5t37.5 -30.5l16 -16l166 -162q16 -14 16 -51q0 -44 -30.5 -72.5t-73.5 -28.5q-21 0 -38 6.5t-25 12.5t-29 24l-168 168q-19 27 -19 58z" />
<glyph unicode="&#x40e;" horiz-adv-x="1112" d="M31 1337q0 54 40.5 89.5t100.5 35.5q41 0 76.5 -23t52.5 -63l178 -442q16 -40 29.5 -87.5t27.5 -105.5t23 -90q5 18 31 122.5t47 158.5l172 444q15 40 51.5 63t79.5 23q56 0 98.5 -37t42.5 -92q0 -27 -10 -47l-330 -817q-26 -65 -45.5 -108.5t-48 -98.5t-55 -90.5 t-64.5 -73.5t-78.5 -59.5t-93.5 -36.5t-114 -16q-62 0 -103 36t-41 91q0 49 37 86.5t98 40.5q67 3 107.5 32.5t75.5 100.5l-377 917q-8 18 -8 47zM250 1726q-14 54 15 84.5t75 30.5q62 0 92 -47q63 -63 123 -63q61 0 121 63q35 47 94 47q46 0 75 -30.5t15 -84.5 q-16 -56 -69 -99.5t-115.5 -64t-120.5 -20.5q-92 0 -185.5 50.5t-119.5 133.5z" />
<glyph unicode="&#x40f;" horiz-adv-x="1267" d="M129 133v1198q0 54 41.5 93.5t101.5 39.5q58 0 101 -39.5t43 -93.5v-1071h436v1071q0 54 43 93.5t100 39.5q58 0 101 -39.5t43 -93.5v-1198q0 -54 -43.5 -93.5t-100.5 -39.5h-219v-211q0 -53 -42.5 -92t-100.5 -39q-59 0 -101.5 39t-42.5 92v211h-217q-60 0 -101.5 39.5 t-41.5 93.5z" />
<glyph unicode="&#x410;" horiz-adv-x="1206" d="M31 113q0 30 6 45l399 1165q23 67 60.5 103t105.5 36q69 0 106.5 -35.5t61.5 -103.5l399 -1165q7 -17 7 -45q0 -58 -42 -94.5t-106 -36.5q-41 0 -83 27.5t-56 68.5l-72 207h-436l-68 -207q-14 -42 -55 -69t-80 -27q-61 0 -104 37t-43 94zM457 518h286l-104 350 q-20 64 -37 201q-17 -137 -37 -201z" />
<glyph unicode="&#x411;" horiz-adv-x="1169" d="M129 147v1156q0 54 45 97.5t109 43.5h598q59 0 100 -39t41 -92q0 -55 -40.5 -92t-100.5 -37h-465v-266h174q241 0 381.5 -119t140.5 -336q0 -75 -17 -141t-56.5 -126t-98.5 -103t-148.5 -68t-201.5 -25h-301q-65 0 -112.5 43.5t-47.5 103.5zM416 260h174q235 0 235 201 q0 196 -235 196h-174v-397z" />
<glyph unicode="&#x412;" horiz-adv-x="1191" d="M129 147v1149q0 62 47.5 105t112.5 43h346q89 0 165.5 -22t130 -60.5t91.5 -89.5t56 -109.5t18 -120.5q0 -187 -215 -290q254 -102 254 -322q0 -185 -138.5 -307.5t-369.5 -122.5h-338q-67 0 -113.5 43.5t-46.5 103.5zM416 260h229q99 0 151 46.5t52 127.5 q0 85 -53.5 133.5t-137.5 48.5h-241v-356zM416 879h235q61 0 109.5 41t48.5 118q0 65 -34.5 106.5t-108.5 41.5h-250v-307z" />
<glyph unicode="&#x413;" horiz-adv-x="1030" d="M129 115v1188q0 54 45 97.5t109 43.5h557q59 0 100 -39t41 -92q0 -55 -40.5 -92t-100.5 -37h-424v-1069q0 -53 -43 -92t-101 -39q-59 0 -101 39t-42 92z" />
<glyph unicode="&#x414;" horiz-adv-x="1368" d="M35 109q0 62 39 106.5t102 44.5q99 117 115 447l31 589q3 61 49 104.5t110 43.5h557q65 0 112.5 -44t47.5 -104v-1036q62 0 98.5 -44t36.5 -107v-263q0 -56 -42 -93.5t-103 -37.5q-60 0 -100.5 37.5t-40.5 93.5v154h-730v-154q0 -56 -40.5 -93.5t-100.5 -37.5 t-100.5 37.5t-40.5 93.5v263zM485 260h426v926h-315l-18 -484q-12 -274 -93 -442z" />
<glyph unicode="&#x415;" horiz-adv-x="1052" d="M129 145v1153q0 56 46.5 101t111.5 45h555q58 0 100.5 -39.5t42.5 -93.5q0 -55 -42 -91t-101 -36h-426v-330h387q56 0 98.5 -37.5t42.5 -91.5q0 -56 -40.5 -93.5t-100.5 -37.5h-387v-334h446q58 0 101 -37.5t43 -89.5q0 -55 -42.5 -94t-101.5 -39h-543q-84 0 -137 34 t-53 111z" />
<glyph unicode="&#x416;" horiz-adv-x="1609" d="M31 119q0 31 18 63l359 539l-359 539q-18 32 -18 65q0 49 38.5 93t100.5 44q72 0 119 -61l373 -547v477q0 53 42 92t101 39q58 0 100.5 -39t42.5 -92v-477l373 547q47 61 119 61q62 0 100.5 -44t38.5 -93q0 -33 -18 -65l-359 -537l359 -541q18 -32 18 -63 q0 -49 -38.5 -93t-100.5 -44q-74 0 -119 59l-373 549v-475q0 -54 -42.5 -93.5t-100.5 -39.5q-60 0 -101.5 39.5t-41.5 93.5v475l-373 -549q-45 -59 -119 -59q-62 0 -100.5 44t-38.5 93z" />
<glyph unicode="&#x417;" horiz-adv-x="1075" d="M41 199q0 50 40 86.5t93 36.5q35 0 81 -23t106 -46.5t128 -23.5q111 0 174.5 55t63.5 138q0 49 -23.5 84.5t-67 55.5t-92.5 30t-114 14q-37 2 -59 6t-48 16t-38.5 39.5t-12.5 69.5q0 34 9.5 57.5t22 35.5t35 19t36.5 8.5t39 2.5q114 3 198 53t84 140q0 66 -47 113.5 t-147 47.5q-86 0 -158 -32q-14 -6 -43.5 -23t-55 -27t-50.5 -10q-51 0 -91.5 34.5t-40.5 84.5q0 64 75 116.5t178 78.5t202 26q109 0 198.5 -36.5t144.5 -96t84.5 -130t29.5 -142.5q0 -101 -57.5 -176t-172.5 -133q267 -107 267 -332q0 -85 -36 -163.5t-99.5 -138.5 t-159 -96t-207.5 -36q-71 0 -150 14t-151.5 39.5t-120 68.5t-47.5 95z" />
<glyph unicode="&#x418;" horiz-adv-x="1310" d="M129 121v1208q0 55 41 94t100 39t102.5 -39.5t43.5 -93.5v-774q362 635 475 831q22 34 60 55t79 21q65 0 107.5 -39.5t42.5 -99.5v-1208q0 -55 -41.5 -94t-100.5 -39t-102 39.5t-43 93.5v766l-475 -828q-20 -32 -58.5 -51.5t-78.5 -19.5q-66 0 -109 40.5t-43 98.5z" />
<glyph unicode="&#x419;" horiz-adv-x="1288" d="M129 121q0 -58 43 -98.5t109 -40.5q40 0 78.5 19.5t58.5 51.5l475 828v-766q0 -54 43 -93.5t102 -39.5t100.5 39t41.5 94v1208q0 60 -42.5 99.5t-107.5 39.5q-41 0 -79 -21t-60 -55q-113 -196 -475 -831v774q0 54 -43.5 93.5t-102.5 39.5t-100 -39t-41 -94v-1208z M338 1726q-14 54 15 84.5t75 30.5q62 0 92 -47q63 -63 123 -63q61 0 121 63q35 47 94 47q46 0 75 -30.5t15 -84.5q-16 -56 -69 -99.5t-115.5 -64t-120.5 -20.5q-92 0 -185.5 50.5t-119.5 133.5z" />
<glyph unicode="&#x41a;" horiz-adv-x="1138" d="M129 115v1216q0 53 42 92t101 39q58 0 101 -39t43 -92v-477h24l410 549q45 59 119 59q62 0 100.5 -44t38.5 -93q0 -33 -23 -70l-403 -532l403 -535q23 -37 23 -69q0 -49 -38.5 -93t-100.5 -44q-74 0 -119 59l-412 551h-22v-477q0 -54 -43 -93.5t-101 -39.5 q-60 0 -101.5 39.5t-41.5 93.5z" />
<glyph unicode="&#x41b;" horiz-adv-x="1361" d="M31 117q0 66 40 100.5t97 34.5q8 0 22 -3t23 -3h12q47 0 56 123l71 927q5 61 50.5 104.5t109.5 43.5h559q65 0 112.5 -44t47.5 -104v-1183q-3 -54 -45 -90.5t-99 -36.5q-62 0 -102.5 37t-40.5 92v1071h-319l-60 -813q-8 -87 -29.5 -156t-59 -121.5t-95.5 -81t-133 -28.5 q-30 0 -47.5 0.5t-43.5 3t-41.5 7.5t-33.5 14.5t-28 23t-16.5 34.5t-6.5 48z" />
<glyph unicode="&#x41c;" horiz-adv-x="1554" d="M121 111v1216q0 58 42 96.5t105 38.5q103 0 144 -80l364 -723l365 725q38 78 141 78q63 0 105.5 -39.5t42.5 -95.5v-1216q0 -52 -42.5 -90.5t-99.5 -38.5q-59 0 -102 38.5t-43 90.5v704l-234 -459q-39 -77 -135 -77q-94 0 -133 77l-233 459v-704q0 -52 -44 -90.5 t-104 -38.5q-58 0 -98.5 38t-40.5 91z" />
<glyph unicode="&#x41d;" horiz-adv-x="1269" d="M129 115v1216q0 53 42 92t101 39q58 0 101 -39t43 -92v-477h436v477q0 52 43 91.5t100 39.5t100.5 -39.5t43.5 -91.5v-1216q0 -54 -43 -93.5t-101 -39.5q-57 0 -100 39.5t-43 93.5v477h-436v-477q0 -54 -43 -93.5t-101 -39.5q-60 0 -101.5 39.5t-41.5 93.5z" />
<glyph unicode="&#x41e;" horiz-adv-x="1249" d="M92 520v406q0 89 18.5 167.5t59.5 147t102 117t151 76.5t202 28t202 -28t151 -76.5t102 -117t59 -146.5t18 -168v-406q0 -113 -34 -210t-99 -170.5t-167.5 -115.5t-231.5 -42t-232 42t-168 115.5t-99 170.5t-34 210zM379 520q0 -128 62 -203t184 -75t183.5 75t61.5 203 v406q0 276 -245 276q-246 0 -246 -276v-406z" />
<glyph unicode="&#x41f;" horiz-adv-x="1267" d="M129 115v1198q0 54 41.5 93.5t101.5 39.5h723q57 0 100.5 -39.5t43.5 -93.5v-1198q0 -54 -43 -93.5t-101 -39.5q-57 0 -100 39.5t-43 93.5v1071h-436v-1071q0 -54 -43 -93.5t-101 -39.5q-60 0 -101.5 39.5t-41.5 93.5z" />
<glyph unicode="&#x420;" horiz-adv-x="1167" d="M129 117v1179q0 60 47.5 104t112.5 44h301q112 0 201.5 -26t148.5 -70.5t98.5 -106.5t56.5 -130t17 -146q0 -224 -140.5 -348.5t-381.5 -124.5h-174v-375q0 -54 -43 -94.5t-101 -40.5q-57 0 -100 40t-43 95zM416 752h174q235 0 235 215q0 217 -235 217h-174v-432z" />
<glyph unicode="&#x421;" horiz-adv-x="1069" d="M72 520v406q0 251 130.5 393.5t391.5 142.5q107 0 205 -29.5t158.5 -80.5t60.5 -109q0 -50 -38.5 -86.5t-96.5 -36.5q-14 0 -24.5 1.5t-20 5t-14 6t-15 9.5t-14.5 9l-21 12q-76 49 -170 49q-132 0 -189 -73t-57 -213v-406q0 -140 57 -213.5t189 -73.5q93 0 170 50l21 12 q4 2 14.5 9t15 9.5t14 6t20 5t24.5 1.5q58 0 96.5 -36.5t38.5 -86.5q0 -58 -60.5 -109t-158.5 -80.5t-205 -29.5q-261 0 -391.5 142.5t-130.5 393.5z" />
<glyph unicode="&#x422;" horiz-adv-x="1071" d="M31 1313q0 46 43 88.5t100 42.5h721q57 0 101 -38.5t44 -92.5q0 -52 -43 -90.5t-102 -38.5h-217v-1071q0 -53 -42.5 -92t-100.5 -39q-59 0 -101.5 39t-42.5 92v1071h-217q-61 0 -102 38t-41 91z" />
<glyph unicode="&#x423;" horiz-adv-x="1112" d="M31 1337q0 54 40.5 89.5t100.5 35.5q41 0 76.5 -23t52.5 -63l178 -442q16 -40 29.5 -87.5t27.5 -105.5t23 -90q5 18 31 122.5t47 158.5l172 444q15 40 51.5 63t79.5 23q56 0 98.5 -37t42.5 -92q0 -27 -10 -47l-330 -817q-26 -65 -45.5 -108.5t-48 -98.5t-55 -90.5 t-64.5 -73.5t-78.5 -59.5t-93.5 -36.5t-114 -16q-62 0 -103 36t-41 91q0 49 37 86.5t98 40.5q67 3 107.5 32.5t75.5 100.5l-377 917q-8 18 -8 47z" />
<glyph unicode="&#x424;" horiz-adv-x="1617" d="M72 776q0 98 28.5 181.5t87.5 152t163 108t243 39.5h72v74q0 52 44 91.5t99 39.5q63 0 103 -38.5t40 -92.5v-74h72q139 0 243 -39.5t163 -108t87.5 -152t28.5 -181.5q0 -226 -140.5 -350.5t-381.5 -124.5h-72v-188q0 -53 -42.5 -92t-100.5 -39q-59 0 -101 39t-42 92v188 h-72q-241 0 -381.5 124.5t-140.5 350.5zM358 778q0 -215 236 -215h72v434h-72q-236 0 -236 -219zM952 563h72q236 0 236 215q0 219 -236 219h-72v-434z" />
<glyph unicode="&#x425;" horiz-adv-x="1134" d="M25 115q0 37 20 69l354 566l-325 514q-17 34 -17 69q0 50 41.5 89.5t96.5 39.5q85 0 141 -94l231 -381l232 381q65 94 143 94q54 0 94.5 -38.5t40.5 -92.5q0 -26 -18 -67l-324 -514l355 -566q20 -32 20 -69q0 -51 -42 -92t-95 -41q-81 0 -133 81l-273 451l-272 -451v3 q-52 -84 -131 -84q-55 0 -97 41t-42 92z" />
<glyph unicode="&#x426;" horiz-adv-x="1318" d="M129 133v1196q0 54 41.5 93.5t101.5 39.5q58 0 101 -39.5t43 -93.5v-1069h436v1069q0 54 43 93.5t100 39.5q58 0 101 -39.5t43 -93.5v-1069h20q57 0 100.5 -39.5t43.5 -91.5v-317q0 -54 -43.5 -94t-100.5 -40t-100 40t-43 94v188h-744q-60 0 -101.5 39.5t-41.5 93.5z" />
<glyph unicode="&#x427;" horiz-adv-x="1202" d="M88 965v362q0 55 42 95t101 40q58 0 101 -40t43 -95v-360q0 -112 52 -163.5t157 -51.5q101 0 200 51v524q0 55 42.5 95t101.5 40q57 0 100 -40t43 -95v-1210q0 -55 -43 -95t-100 -40q-59 0 -101.5 40t-42.5 95v422q-91 -47 -213 -47q-227 0 -355 123.5t-128 349.5z" />
<glyph unicode="&#x428;" horiz-adv-x="1638" d="M129 133v1196q0 54 41.5 93.5t101.5 39.5q58 0 101 -39.5t43 -93.5v-1069h258v1071q0 53 42 92t101 39q58 0 101 -39t43 -92v-1071h260v1069q0 54 43 93.5t100 39.5q58 0 100.5 -39.5t42.5 -93.5v-1196q0 -54 -43 -93.5t-100 -39.5h-1092q-60 0 -101.5 39.5t-41.5 93.5z " />
<glyph unicode="&#x429;" horiz-adv-x="1687" d="M129 133v1196q0 54 41.5 93.5t101.5 39.5q58 0 101 -39.5t43 -93.5v-1069h258v1071q0 53 42 92t101 39q58 0 101 -39t43 -92v-1071h260v1069q0 54 43 93.5t100 39.5q58 0 100.5 -39.5t42.5 -93.5v-1069h21q57 0 100 -39.5t43 -91.5v-297q0 -54 -42.5 -93.5t-100.5 -39.5 q-57 0 -100.5 39.5t-43.5 93.5v168h-1112q-60 0 -101.5 39.5t-41.5 93.5z" />
<glyph unicode="&#x42a;" horiz-adv-x="1441" d="M33 1313q0 53 41 92t100 39h332q64 0 108.5 -43.5t44.5 -97.5v-349h175q241 0 381.5 -124.5t140.5 -348.5q0 -99 -28.5 -182.5t-87.5 -152t-163 -107.5t-243 -39h-302q-65 0 -112 43.5t-47 103.5v1037h-199q-60 0 -100.5 37t-40.5 92zM659 260h175q235 0 235 219 q0 215 -235 215h-175v-434z" />
<glyph unicode="&#x42b;" horiz-adv-x="1607" d="M129 147v1180q0 55 43 95t100 40q58 0 101 -40.5t43 -94.5v-373h153q241 0 382 -124.5t141 -348.5q0 -99 -28.5 -182.5t-88 -152t-163.5 -107.5t-243 -39h-280q-65 0 -112.5 43.5t-47.5 103.5zM416 260h153q236 0 236 219q0 215 -236 215h-153v-434zM1190 113v1218 q0 53 42 92t101 39q58 0 101 -39t43 -92v-1218q0 -53 -43 -92t-101 -39q-59 0 -101 39t-42 92z" />
<glyph unicode="&#x42c;" horiz-adv-x="1198" d="M129 147v1180q0 55 43 95t100 40q58 0 101 -40.5t43 -94.5v-373h174q241 0 381.5 -124.5t140.5 -348.5q0 -99 -28.5 -182.5t-87.5 -152t-163 -107.5t-243 -39h-301q-65 0 -112.5 43.5t-47.5 103.5zM416 260h174q235 0 235 219q0 215 -235 215h-174v-434z" />
<glyph unicode="&#x42d;" horiz-adv-x="1101" d="M72 203q0 50 38.5 86.5t96.5 36.5q14 0 24.5 -1.5t20 -5t14 -6t15 -9.5t14.5 -9l20 -12q77 -50 170 -50q132 0 189 73.5t57 213.5v72h-319q-60 0 -100 38.5t-40 94.5q0 55 41.5 92t98.5 37h319v72q0 140 -57 213t-189 73q-94 0 -170 -49l-20 -12q-4 -2 -14.5 -9t-15 -9.5 t-14 -6t-20 -5t-24.5 -1.5q-58 0 -96.5 36.5t-38.5 86.5q0 58 60.5 109t158.5 80.5t205 29.5q261 0 391.5 -142.5t130.5 -393.5v-406q0 -251 -130.5 -393.5t-391.5 -142.5q-107 0 -205 29.5t-158.5 80.5t-60.5 109z" />
<glyph unicode="&#x42e;" horiz-adv-x="1716" d="M129 115v1216q0 53 42 92t101 39q58 0 101 -39t43 -92v-477h184v90q0 110 29 201t88 163.5t160 113t235 40.5t235 -40.5t160 -113t88 -163.5t29 -201v-442q0 -148 -56 -263.5t-173.5 -186t-282.5 -70.5t-282.5 70.5t-173.5 186t-56 263.5v92h-184v-479q0 -54 -43 -93.5 t-101 -39.5q-60 0 -101.5 39.5t-41.5 93.5zM887 502q0 -120 56.5 -190t168.5 -70t168.5 70t56.5 190v442q0 258 -225 258t-225 -258v-442z" />
<glyph unicode="&#x42f;" horiz-adv-x="1230" d="M102 111q0 45 25 84l279 421q-135 44 -209 144t-74 250q0 86 26 159.5t82.5 137t158.5 100.5t241 37h315q63 0 109.5 -44t46.5 -104v-1179q0 -56 -40.5 -95.5t-100.5 -39.5q-58 0 -102 40.5t-44 94.5v469h-100l-342 -539q-41 -63 -121 -63q-46 0 -98 38.5t-52 88.5z M410 1010q0 -80 50.5 -123t145.5 -43h209v340h-197q-208 0 -208 -174z" />
<glyph unicode="&#x430;" horiz-adv-x="1069" d="M72 309v6q0 314 405 314q92 0 162 -21v66q0 141 -156 141q-58 0 -133 -33q-2 -1 -13 -5.5t-18 -7t-20 -5t-27 -2.5q-59 0 -88.5 37t-29.5 82q0 44 30.5 77.5t81.5 53t111.5 29.5t126.5 10q218 0 318 -106t100 -318v-381q0 -22 6.5 -35t11 -17t24 -10t23.5 -8 q47 -18 47 -78q0 -52 -34 -79t-113 -27q-59 0 -99.5 19t-74.5 67q-115 -92 -277 -92q-175 0 -269.5 87t-94.5 236zM352 307q0 -50 30 -72t97 -22q91 0 160 53v148q-82 16 -145 16q-82 0 -112 -31.5t-30 -85.5v-6z" />
<glyph unicode="&#x431;" horiz-adv-x="1034" d="M72 367v561q0 208 113 341.5t345 157.5q1 0 16.5 2t34 4.5t42.5 7.5t51 13.5t51 18.5q24 12 57 12q56 0 93.5 -35.5t37.5 -87.5q0 -28 -13 -51.5t-32.5 -39.5t-51 -29t-58 -20.5t-63.5 -13.5t-59 -8t-53.5 -4.5t-37.5 -3.5q-191 -18 -191 -250q77 57 191 57 q193 0 304.5 -107.5t111.5 -273.5v-251q0 -168 -117 -274.5t-328 -106.5t-327.5 106.5t-116.5 274.5zM354 367q0 -66 42 -103t120 -37t120 37t42 103v254q0 65 -38.5 101t-115.5 36q-74 0 -120 -33t-50 -92v-266z" />
<glyph unicode="&#x432;" horiz-adv-x="1040" d="M129 127v780q0 52 41 89.5t100 37.5h275q195 0 298 -80t103 -206q0 -75 -43.5 -129.5t-144.5 -94.5q110 -43 159.5 -99t49.5 -138q0 -127 -104 -207t-298 -80h-295q-59 0 -100 37.5t-41 89.5zM412 213h149q125 0 125 106q0 109 -143 109h-131v-215zM412 618h133 q121 0 121 97q0 106 -125 106h-129v-203z" />
<glyph unicode="&#x433;" horiz-adv-x="884" d="M129 113v802q0 51 39 85t96 34h461q55 0 95 -34.5t40 -84.5q0 -51 -39 -84.5t-96 -33.5h-313v-684q0 -54 -41 -90.5t-101 -36.5t-100.5 36.5t-40.5 90.5z" />
<glyph unicode="&#x434;" horiz-adv-x="1183" d="M27 104q0 18 5.5 37.5t17.5 41t37.5 35t59.5 13.5q93 75 105 308l18 372q2 48 36 85.5t83 37.5h512q33 0 58 -13t38 -34t19 -41t6 -39v-676h14q33 0 58 -13t38 -34t19 -41t6 -39v-264q0 -54 -40.5 -90.5t-100.5 -36.5t-101 36.5t-41 90.5v160h-565v-160 q0 -54 -40.5 -90.5t-100.5 -36.5t-100.5 36.5t-40.5 90.5v264zM461 231h278v572h-204l-11 -268q-10 -185 -63 -304z" />
<glyph unicode="&#x435;" horiz-adv-x="993" d="M92 344v342q0 161 114.5 263t321.5 102q196 0 299 -94.5t103 -254.5q0 -311 -398 -311q-68 0 -157 12v-67q0 -54 41.5 -84.5t122.5 -30.5q82 0 184 45q26 13 61 13q66 0 96.5 -35t30.5 -78q0 -50 -42 -87.5t-107 -56.5t-126.5 -27.5t-117.5 -8.5q-198 0 -312 100.5 t-114 257.5zM375 610q88 -8 147 -8q62 0 94.5 26t32.5 89q0 60 -30.5 87t-92.5 27q-73 0 -112 -35.5t-39 -97.5v-88z" />
<glyph unicode="&#x436;" horiz-adv-x="1327" d="M31 98q0 45 22 76l234 340l-236 342q-20 28 -20 72q3 52 41 83t96 31q77 0 119 -59l229 -336h6v273q0 51 41 87.5t101 36.5t100.5 -36.5t40.5 -87.5v-273h4l231 332q45 63 119 63q59 0 96.5 -31t40.5 -83q0 -43 -22 -74l-236 -340l236 -340q22 -31 22 -76q-3 -52 -41 -82 t-96 -30q-75 0 -119 59l-235 342v-274q0 -54 -40.5 -90.5t-100.5 -36.5t-101 36.5t-41 90.5v274l-237 -344q-40 -57 -117 -57q-59 0 -96.5 30t-40.5 82z" />
<glyph unicode="&#x437;" horiz-adv-x="917" d="M59 154q0 45 30.5 82.5t78.5 37.5t84 -18q49 -24 86 -34.5t94 -10.5q68 0 102.5 21.5t34.5 80.5q0 18 -5 31t-21 30t-55.5 27.5t-100.5 14.5q-29 2 -45 3.5t-41 8t-38 17t-23.5 31t-10.5 48.5q0 26 9 45t22 29.5t33.5 17t36.5 8.5t38 4h4.5t4 0.5t4.5 0.5q168 17 168 110 q0 86 -125 86q-62 0 -122 -26.5t-91 -26.5q-55 0 -93 37t-38 84q0 42 34.5 74.5t89.5 49.5t113.5 25.5t116.5 8.5q188 0 290.5 -81.5t102.5 -211.5q0 -78 -40.5 -133.5t-129.5 -96.5q101 -37 146 -92.5t45 -140.5q0 -139 -106 -224t-304 -85q-56 0 -114 7t-121.5 24 t-103.5 52.5t-40 84.5z" />
<glyph unicode="&#x438;" horiz-adv-x="1167" d="M129 117v801q0 53 40 91t99 38t101.5 -38.5t42.5 -90.5v-469l342 528q20 33 56.5 51.5t78.5 18.5q65 0 106 -38.5t41 -97.5v-798q0 -53 -41 -92t-100 -39t-100 39t-41 92v460l-340 -524q-51 -67 -133 -67q-66 0 -109 39t-43 96z" />
<glyph unicode="&#x439;" horiz-adv-x="1167" d="M129 117v801q0 53 40 91t99 38t101.5 -38.5t42.5 -90.5v-469l342 528q20 33 56.5 51.5t78.5 18.5q65 0 106 -38.5t41 -97.5v-798q0 -53 -41 -92t-100 -39t-100 39t-41 92v460l-340 -524q-51 -67 -133 -67q-66 0 -109 39t-43 96zM279 1317q-14 54 15 84.5t75 30.5 q61 0 92 -48q63 -63 123 -63q61 0 121 63q36 48 94 48q46 0 75 -30.5t15 -84.5q-16 -56 -69 -99.5t-115.5 -64t-120.5 -20.5q-92 0 -185.5 50.5t-119.5 133.5z" />
<glyph unicode="&#x43a;" horiz-adv-x="974" d="M129 113v807q0 51 40.5 87.5t100.5 36.5t101 -36.5t41 -87.5v-273h28l250 338q42 57 117 57q58 0 96 -31t41 -83q0 -43 -22 -74l-258 -340l258 -340q22 -31 22 -74q-3 -52 -41 -83t-96 -31q-75 0 -117 57l-250 338h-28v-268q0 -54 -41 -90.5t-101 -36.5t-100.5 36.5 t-40.5 90.5z" />
<glyph unicode="&#x43b;" horiz-adv-x="1183" d="M31 111q0 63 42.5 97.5t94.5 24.5q20 -4 27 -4q46 0 55 117l53 565q5 49 37.5 86t81.5 37h512q33 0 58 -13t38 -34t19 -41t6 -39v-794q0 -54 -41 -90.5t-101 -36.5t-100.5 36.5t-40.5 90.5v690h-209l-39 -453q-16 -172 -88.5 -265t-218.5 -93q-186 0 -186 119z" />
<glyph unicode="&#x43c;" horiz-adv-x="1392" d="M129 113v800q0 57 42 94t105 37q90 0 136 -75l282 -482l283 482q46 75 135 75q63 0 105.5 -37t42.5 -94v-800q0 -52 -42 -89.5t-98 -37.5q-60 0 -100.5 37t-40.5 90v397l-152 -285q-44 -73 -131 -73h-4q-87 0 -131 73l-151 285v-397q0 -52 -42.5 -89.5t-99.5 -37.5 q-58 0 -98.5 37t-40.5 90z" />
<glyph unicode="&#x43d;" horiz-adv-x="1134" d="M129 113v807q0 51 40.5 87.5t100.5 36.5t101 -36.5t41 -87.5v-273h311v273q0 51 40.5 87.5t100.5 36.5t101 -36.5t41 -87.5v-807q0 -54 -41 -90.5t-101 -36.5t-100.5 36.5t-40.5 90.5v305h-311v-305q0 -54 -41 -90.5t-101 -36.5t-100.5 36.5t-40.5 90.5z" />
<glyph unicode="&#x43e;" horiz-adv-x="1073" d="M92 367v305q0 168 117 274.5t328 106.5t327.5 -106.5t116.5 -274.5v-305q0 -168 -116.5 -274.5t-327.5 -106.5t-328 106.5t-117 274.5zM375 367q0 -66 42 -103t120 -37t119.5 37t41.5 103v307q0 64 -41.5 100.5t-119.5 36.5t-120 -36.5t-42 -100.5v-307z" />
<glyph unicode="&#x43f;" horiz-adv-x="1114" d="M129 113v794q0 54 40.5 90.5t100.5 36.5h574q60 0 100.5 -36.5t40.5 -90.5v-794q0 -54 -40.5 -90.5t-100.5 -36.5t-101 36.5t-41 90.5v690h-290v-690q0 -54 -41 -90.5t-101 -36.5t-100.5 36.5t-40.5 90.5z" />
<glyph unicode="&#x440;" horiz-adv-x="1081" d="M86 893q0 55 41.5 90t93.5 35q60 0 107 -57q82 46 147 68t141 22q174 0 273.5 -110.5t99.5 -291.5v-237q0 -424 -391 -424q-91 0 -178 41v-338q0 -54 -37.5 -89.5t-103.5 -35.5q-65 0 -103.5 36t-38.5 89v1040q0 62 -22 96q-29 36 -29 66zM416 770q4 -28 4 -39v-483 q91 -27 149 -27q74 0 106 46t32 145v237q0 80 -34 122t-100 42q-64 0 -157 -43z" />
<glyph unicode="&#x441;" horiz-adv-x="907" d="M92 377v276q0 174 107 282.5t317 108.5q54 0 107.5 -7.5t111.5 -25t94.5 -55t36.5 -90.5q0 -44 -28.5 -74t-98.5 -30q-32 0 -67 12q-7 3 -24 9.5t-26.5 10t-24.5 7.5t-31 6t-34 2q-157 0 -157 -156v-276q0 -156 157 -156q18 0 33.5 1.5t32.5 6.5t24 7.5t27 10.5t23 9 q30 12 63 12q72 0 101.5 -30.5t29.5 -73.5q0 -42 -25 -74.5t-63 -51.5t-87.5 -31.5t-92 -16.5t-84.5 -4q-106 0 -187.5 30t-132 83.5t-76.5 123.5t-26 154z" />
<glyph unicode="&#x442;" horiz-adv-x="917" d="M31 911q0 52 39 87.5t96 35.5h586q57 0 96 -35.5t39 -87.5t-39 -87.5t-96 -35.5h-152v-675q0 -54 -40.5 -90.5t-100.5 -36.5t-101 36.5t-41 90.5v675h-151q-57 0 -96 35.5t-39 87.5z" />
<glyph unicode="&#x443;" horiz-adv-x="970" d="M33 924q0 52 40.5 86t100.5 34q43 0 77.5 -22t51.5 -64l129 -344q17 -43 38 -127.5t28 -107.5q5 23 16 73.5t20.5 89.5t20.5 72l111 344q13 42 50.5 64t82.5 22q56 0 98.5 -35t42.5 -89q0 -22 -6 -37l-250 -729q-79 -232 -123 -319q-81 -160 -199 -215q-77 -36 -180 -36 q-62 0 -102.5 34.5t-40.5 88.5q0 48 37 84t98 39q66 3 106 54.5t78 174.5l-315 813q-10 25 -10 52z" />
<glyph unicode="&#x444;" horiz-adv-x="1359" d="M92 457v139q0 187 115.5 310.5t329.5 140.5v305q0 52 41 89.5t100 37.5q60 0 100.5 -36.5t40.5 -90.5v-305q216 -15 332.5 -139t116.5 -312v-139q0 -196 -116.5 -324t-332.5 -143v-297q0 -54 -40.5 -90.5t-100.5 -36.5t-100.5 36.5t-40.5 90.5v297q-215 17 -330 144.5 t-115 322.5zM354 457q0 -90 46 -147.5t137 -76.5v568q-91 -15 -137 -67.5t-46 -135.5v-141zM819 233q92 15 139.5 73.5t47.5 150.5v141q0 85 -47.5 138.5t-139.5 66.5v-570z" />
<glyph unicode="&#x445;" horiz-adv-x="964" d="M31 113q0 35 20 61q46 63 133 176.5t133 175.5q-238 317 -245 326q-25 28 -25 66q0 52 41 89t100 37q28 0 50.5 -7t41 -23.5t26 -26t24.5 -31.5l155 -211l164 228q26 36 53.5 53.5t73.5 17.5q52 0 95.5 -35.5t43.5 -86.5q0 -41 -20 -66l-246 -330l264 -348q21 -26 21 -63 q0 -54 -40 -91.5t-103 -37.5q-47 0 -73 16t-56 57q-37 53 -91 125.5t-90 122.5q-176 -240 -190 -260q-46 -61 -117 -61q-61 0 -102 35.5t-41 91.5z" />
<glyph unicode="&#x446;" horiz-adv-x="1165" d="M129 127v793q0 54 40.5 89t100.5 35t101 -35t41 -89v-689h311v689q0 54 40.5 89t100.5 35t101 -35t41 -89v-689q57 -3 96 -39t39 -88v-274q0 -54 -41 -90.5t-101 -36.5t-100.5 36.5t-40.5 90.5v170h-588q-60 0 -100.5 36.5t-40.5 90.5z" />
<glyph unicode="&#x447;" horiz-adv-x="1060" d="M92 662v258q0 51 40.5 87.5t100.5 36.5t101 -36.5t41 -87.5v-258q0 -44 25 -70.5t94 -26.5q37 0 153 17v338q0 51 40.5 87.5t100.5 36.5t101 -36.5t41 -87.5v-807q0 -54 -41 -90.5t-101 -36.5t-100.5 36.5t-40.5 90.5v245q-63 -22 -147 -22q-408 0 -408 326z" />
<glyph unicode="&#x448;" horiz-adv-x="1525" d="M129 127v793q0 54 40.5 89t100.5 35t101 -35t41 -89v-689h209v689q0 51 40.5 87.5t100.5 36.5t100.5 -36.5t40.5 -87.5v-689h209v689q0 54 40.5 89t100.5 35t101 -35t41 -89v-793q0 -54 -41 -90.5t-101 -36.5h-983q-60 0 -100.5 36.5t-40.5 90.5z" />
<glyph unicode="&#x449;" horiz-adv-x="1552" d="M129 127v793q0 54 40.5 89t100.5 35t101 -35t41 -89v-689h209v689q0 51 40.5 87.5t100.5 36.5t100.5 -36.5t40.5 -87.5v-689h209v689q0 54 40.5 89t100.5 35t101 -35t41 -89v-689q56 -2 95.5 -38t39.5 -89v-274q0 -54 -40.5 -90.5t-100.5 -36.5t-101 36.5t-41 90.5v170 h-977q-60 0 -100.5 36.5t-40.5 90.5z" />
<glyph unicode="&#x44a;" horiz-adv-x="1193" d="M31 915q0 50 40 84.5t95 34.5h256q57 0 96 -34t39 -85v-258h168q212 0 310 -84.5t98 -248.5q0 -149 -97.5 -236.5t-283.5 -87.5h-336q-59 0 -100.5 37.5t-41.5 89.5v670h-108q-57 0 -96 33.5t-39 84.5zM557 233h191q104 0 104 97q0 43 -26.5 69.5t-100.5 26.5h-168v-193z " />
<glyph unicode="&#x44b;" horiz-adv-x="1482" d="M129 127v793q0 51 40.5 87.5t100.5 36.5t101 -36.5t41 -87.5v-263h168q211 0 309 -84.5t98 -248.5q0 -149 -97.5 -236.5t-283.5 -87.5h-336q-59 0 -100 37.5t-41 89.5zM412 233h190q105 0 105 97q0 43 -26.5 69.5t-100.5 26.5h-168v-193zM1069 113v807q0 51 40.5 87.5 t100.5 36.5t101 -36.5t41 -87.5v-807q0 -54 -41 -90.5t-101 -36.5t-100.5 36.5t-40.5 90.5z" />
<glyph unicode="&#x44c;" horiz-adv-x="1048" d="M129 127v793q0 51 40.5 87.5t100.5 36.5t101 -36.5t41 -87.5v-263h168q211 0 309 -84.5t98 -248.5q0 -149 -97.5 -236.5t-283.5 -87.5h-336q-59 0 -100 37.5t-41 89.5zM412 233h190q105 0 105 97q0 43 -26.5 69.5t-100.5 26.5h-168v-193z" />
<glyph unicode="&#x44d;" horiz-adv-x="886" d="M39 152q0 48 38 82t93 34q26 0 57 -10q35 -14 49.5 -19t47 -11.5t65.5 -6.5q141 0 141 174v6h-251q-57 0 -96.5 34t-39.5 85t39.5 85t96.5 34h251q-3 170 -141 170q-33 0 -65.5 -6.5t-47 -11.5t-49.5 -19q-42 -10 -57 -10q-55 0 -93 35t-38 82q0 45 39 79.5t99.5 52 t118.5 25.5t110 8q204 0 305.5 -112.5t101.5 -296.5v-240q0 -184 -101.5 -296.5t-305.5 -112.5q-52 0 -110.5 8.5t-118.5 26.5t-99 52t-39 79z" />
<glyph unicode="&#x44e;" horiz-adv-x="1517" d="M129 113v807q0 51 40.5 87.5t100.5 36.5t101 -36.5t41 -87.5v-273h163v23q0 168 114 274.5t321 106.5t320.5 -106.5t113.5 -274.5v-303q0 -168 -113.5 -274.5t-320.5 -106.5t-321 106.5t-114 274.5v51h-163v-305q0 -54 -41 -90.5t-101 -36.5t-100.5 36.5t-40.5 90.5z M858 367q0 -66 39 -103t113 -37t112.5 37t38.5 103v305q0 64 -38.5 100.5t-112.5 36.5t-113 -36.5t-39 -100.5v-305z" />
<glyph unicode="&#x44f;" horiz-adv-x="1079" d="M82 98q0 45 22 76l179 238q-193 70 -193 299q0 149 103 236t299 87h315q59 0 100 -37.5t41 -89.5v-794q0 -53 -40.5 -90t-100.5 -37t-100.5 37t-40.5 90v264h-86l-244 -334q-45 -57 -117 -57q-59 0 -96.5 30t-40.5 82zM371 705q0 -97 147 -97h148v193h-170 q-125 0 -125 -96z" />
<glyph unicode="&#x450;" horiz-adv-x="993" d="M92 344v342q0 161 114.5 263t321.5 102q196 0 299 -94.5t103 -254.5q0 -311 -398 -311q-68 0 -157 12v-67q0 -54 41.5 -84.5t122.5 -30.5q82 0 184 45q26 13 61 13q66 0 96.5 -35t30.5 -78q0 -50 -42 -87.5t-107 -56.5t-126.5 -27.5t-117.5 -8.5q-198 0 -312 100.5 t-114 257.5zM292 1409q0 41 32 70.5t69 29.5q31 0 46.5 -8.5t37.5 -30.5l16 -16l166 -162q16 -14 16 -51q0 -44 -30 -72t-74 -28q-21 0 -38 6.5t-25 12.5t-29 24l-168 168q-19 27 -19 57zM375 610q88 -8 147 -8q62 0 94.5 26t32.5 89q0 60 -30.5 87t-92.5 27 q-73 0 -112 -35.5t-39 -97.5v-88z" />
<glyph unicode="&#x451;" horiz-adv-x="993" d="M92 344v342q0 161 114.5 263t321.5 102q196 0 299 -94.5t103 -254.5q0 -311 -398 -311q-68 0 -157 12v-67q0 -54 41.5 -84.5t122.5 -30.5q82 0 184 45q26 13 61 13q66 0 96.5 -35t30.5 -78q0 -50 -42 -87.5t-107 -56.5t-126.5 -27.5t-117.5 -8.5q-198 0 -312 100.5 t-114 257.5zM180 1290q0 51 38 88t93 37q57 0 96 -36t39 -89q0 -54 -39 -91.5t-96 -37.5q-55 0 -93 38t-38 91zM375 610q88 -8 147 -8q62 0 94.5 26t32.5 89q0 60 -30.5 87t-92.5 27q-73 0 -112 -35.5t-39 -97.5v-88zM545 1290q0 51 40 88t95 37q56 0 94.5 -36.5t38.5 -88.5 q0 -54 -38.5 -91.5t-94.5 -37.5q-55 0 -95 38t-40 91z" />
<glyph unicode="&#x452;" horiz-adv-x="1273" d="M31 1225q0 42 33.5 72t82.5 30h138v35q0 51 40 89t99 38q60 0 100.5 -36.5t40.5 -90.5v-35h133q47 0 81 -30.5t34 -71.5q0 -40 -34 -70.5t-81 -30.5h-133v-176q86 47 195 47q190 0 285.5 -113t95.5 -307v-425q0 -496 -389 -562q-47 0 -81.5 23.5t-45.5 62.5 q-7 35 -2.5 60t24.5 43.5t40.5 28.5t43.5 16q127 33 127 260v491q0 92 -27.5 135.5t-89.5 43.5q-44 0 -93 -18.5t-83 -49.5v-571q0 -54 -39.5 -90.5t-99.5 -36.5t-100.5 36.5t-40.5 90.5v1011h-138q-49 0 -82.5 29.5t-33.5 71.5z" />
<glyph unicode="&#x453;" horiz-adv-x="884" d="M129 113v802q0 51 39 85t96 34h461q55 0 95 -34.5t40 -84.5q0 -51 -39 -84.5t-96 -33.5h-313v-684q0 -54 -41 -90.5t-101 -36.5t-100.5 36.5t-40.5 90.5zM360 1241q0 28 17 51l166 162l16 16q15 15 23.5 21.5t23.5 12t37 5.5q37 0 68.5 -29.5t31.5 -70.5q0 -31 -18 -57 l-168 -168q-21 -18 -29 -24t-25 -12.5t-38 -6.5q-44 0 -74.5 28.5t-30.5 71.5z" />
<glyph unicode="&#x454;" horiz-adv-x="907" d="M92 377v276q0 174 107 282.5t317 108.5q54 0 107.5 -7.5t111.5 -25t94.5 -55t36.5 -90.5q0 -44 -28.5 -74t-98.5 -30q-32 0 -67 12q-7 3 -24 9.5t-26.5 10t-24.5 7.5t-31 6t-34 2q-157 0 -157 -156v-14h252q57 0 96 -34t39 -85t-39 -85t-96 -34h-252v-24q0 -156 157 -156 q18 0 33.5 1.5t32.5 6.5t24 7.5t27 10.5t23 9q30 12 63 12q72 0 101.5 -30.5t29.5 -73.5q0 -42 -25 -74.5t-63 -51.5t-87.5 -31.5t-92 -16.5t-84.5 -4q-106 0 -187.5 30t-132 83.5t-76.5 123.5t-26 154z" />
<glyph unicode="&#x455;" horiz-adv-x="913" d="M76 145q0 47 38 84t95 37q30 0 103.5 -22.5t127.5 -22.5q58 0 91.5 20.5t33.5 61.5q0 44 -43 66q-28 15 -78 32.5t-94 31t-94 39t-85.5 56.5t-59 84t-23.5 121q0 145 102 231.5t293 86.5q56 0 109 -8t106 -26t85 -54t32 -86q0 -41 -22.5 -66t-47 -32t-51.5 -7 q-32 0 -94 21.5t-115 21.5q-118 0 -118 -74q0 -43 61 -67q26 -11 80.5 -29.5t93.5 -32.5t88 -42t80 -60t52.5 -84t21.5 -117q0 -151 -104.5 -237t-295.5 -86q-56 0 -114 7.5t-118 24t-98 49.5t-38 78z" />
<glyph unicode="&#x456;" horiz-adv-x="583" d="M131 1319q0 60 46.5 101.5t113.5 41.5t113.5 -42t46.5 -101q0 -60 -46.5 -101.5t-113.5 -41.5t-113.5 42t-46.5 101zM150 113v807q0 51 40.5 87.5t100.5 36.5t100.5 -36.5t40.5 -87.5v-807q0 -54 -40.5 -90.5t-100.5 -36.5t-100.5 36.5t-40.5 90.5z" />
<glyph unicode="&#x457;" horiz-adv-x="583" d="M-25 1290q0 51 38 88t93 37q57 0 96.5 -36.5t39.5 -88.5q0 -54 -39.5 -91.5t-96.5 -37.5q-55 0 -93 38t-38 91zM150 113v807q0 51 40.5 87.5t100.5 36.5t100.5 -36.5t40.5 -87.5v-807q0 -54 -40.5 -90.5t-100.5 -36.5t-100.5 36.5t-40.5 90.5zM340 1290q0 51 40 88t95 37 q56 0 94.5 -36.5t38.5 -88.5q0 -54 -38.5 -91.5t-94.5 -37.5q-55 0 -95 38t-40 91z" />
<glyph unicode="&#x458;" horiz-adv-x="583" d="M-84 -326q-18 62 18.5 100.5t88.5 47.5q127 23 127 158v940q0 51 40.5 87.5t100.5 36.5t100.5 -36.5t40.5 -87.5v-934q0 -179 -105.5 -288.5t-283.5 -109.5q-47 0 -81.5 23.5t-45.5 62.5zM131 1319q0 60 46.5 101.5t113.5 41.5t113.5 -42t46.5 -101q0 -60 -46.5 -101.5 t-113.5 -41.5t-113.5 42t-46.5 101z" />
<glyph unicode="&#x459;" horiz-adv-x="1609" d="M31 111q0 61 40 91.5t97 30.5q4 0 13.5 -1t13.5 -1q46 0 55 115l53 565q5 49 37.5 86t81.5 37h471q33 0 58 -13t38 -34t19 -41t6 -39v-250h127q211 0 309 -84.5t98 -248.5q0 -149 -97.5 -236.5t-283.5 -87.5h-295q-59 0 -100 37.5t-41 89.5v676h-168l-39 -453 q-16 -172 -88.5 -265t-218.5 -93q-36 0 -56.5 1t-49 7.5t-43 18t-26 35t-11.5 57.5zM1014 233h149q105 0 105 97q0 43 -26.5 69.5t-100.5 26.5h-127v-193z" />
<glyph unicode="&#x45a;" horiz-adv-x="1560" d="M129 113v807q0 51 40.5 87.5t100.5 36.5t101 -36.5t41 -87.5v-273h270v273q0 51 40.5 87.5t100.5 36.5t101 -36.5t41 -87.5v-273h127q212 0 309.5 -81.5t97.5 -241.5q0 -149 -97.5 -236.5t-283.5 -87.5h-295q-59 0 -100 37.5t-41 89.5v291h-270v-305q0 -54 -41 -90.5 t-101 -36.5t-100.5 36.5t-40.5 90.5zM965 233h149q105 0 105 97q0 88 -127 88h-127v-185z" />
<glyph unicode="&#x45b;" horiz-adv-x="1273" d="M31 1225q0 42 33.5 72t82.5 30h138v35q0 51 40 89t99 38q60 0 100.5 -36.5t40.5 -90.5v-35h133q47 0 81 -30.5t34 -71.5q0 -40 -34 -70.5t-81 -30.5h-133v-163q84 34 195 34q190 0 285.5 -96.5t95.5 -261.5v-524q0 -53 -42 -90t-100 -37q-60 0 -100.5 36.5t-40.5 90.5 v522q0 60 -27.5 88.5t-89.5 28.5q-44 0 -93 -18.5t-83 -49.5v-571q0 -54 -39.5 -90.5t-99.5 -36.5t-100.5 36.5t-40.5 90.5v1011h-138q-49 0 -82.5 29.5t-33.5 71.5z" />
<glyph unicode="&#x45c;" horiz-adv-x="974" d="M129 113q0 -54 40.5 -90.5t100.5 -36.5t101 36.5t41 90.5v268h28l250 -338q42 -57 117 -57q58 0 96 31t41 83q0 43 -22 74l-258 340l258 340q22 31 22 74q-3 52 -41 83t-96 31q-75 0 -117 -57l-250 -338h-28v273q0 51 -41 87.5t-101 36.5t-100.5 -36.5t-40.5 -87.5v-807z M399 1241q0 28 17 51l166 162l16 16q15 15 23.5 21.5t23.5 12t37 5.5q37 0 68.5 -29.5t31.5 -70.5q0 -31 -18 -57l-168 -168q-21 -18 -29 -24t-25 -12.5t-38 -6.5q-44 0 -74.5 28.5t-30.5 71.5z" />
<glyph unicode="&#x45d;" horiz-adv-x="1167" d="M129 117v801q0 53 40 91t99 38t101.5 -38.5t42.5 -90.5v-469l342 528q20 33 56.5 51.5t78.5 18.5q65 0 106 -38.5t41 -97.5v-798q0 -53 -41 -92t-100 -39t-100 39t-41 92v460l-340 -524q-51 -67 -133 -67q-66 0 -109 39t-43 96zM330 1409q0 41 31.5 70.5t68.5 29.5 q31 0 46.5 -8.5t37.5 -30.5l16 -16l166 -162q17 -15 17 -51q0 -43 -30.5 -71.5t-74.5 -28.5q-21 0 -38 6.5t-25 12.5t-29 24l-168 168q-18 26 -18 57z" />
<glyph unicode="&#x45e;" horiz-adv-x="970" d="M33 924q0 52 40.5 86t100.5 34q43 0 77.5 -22t51.5 -64l129 -344q17 -43 38 -127.5t28 -107.5q5 23 16 73.5t20.5 89.5t20.5 72l111 344q13 42 50.5 64t82.5 22q56 0 98.5 -35t42.5 -89q0 -22 -6 -37l-250 -729q-79 -232 -123 -319q-81 -160 -199 -215q-77 -36 -180 -36 q-62 0 -102.5 34.5t-40.5 88.5q0 48 37 84t98 39q66 3 106 54.5t78 174.5l-315 813q-10 25 -10 52zM181 1317q-14 54 15 84.5t75 30.5q61 0 92 -48q63 -63 123 -63q61 0 121 63q36 48 94 48q46 0 75 -30.5t15 -84.5q-16 -56 -69 -99.5t-115.5 -64t-120.5 -20.5 q-92 0 -185.5 50.5t-119.5 133.5z" />
<glyph unicode="&#x45f;" horiz-adv-x="1114" d="M129 127v795q0 54 40.5 90.5t100.5 36.5t101 -36.5t41 -90.5v-691h290v691q0 54 41 90.5t101 36.5t100.5 -36.5t40.5 -90.5v-795q0 -54 -40.5 -90.5t-100.5 -36.5h-146v-170q0 -54 -40.5 -90.5t-100.5 -36.5t-100.5 36.5t-40.5 90.5v170h-146q-60 0 -100.5 36.5 t-40.5 90.5z" />
<glyph unicode="&#x462;" horiz-adv-x="1400" d="M31 1239q0 41 37 77t86 36h155v73q0 53 42.5 92t101.5 39q58 0 100.5 -39t42.5 -92v-73h319q48 0 86.5 -33t38.5 -78t-37 -76.5t-88 -31.5h-319v-215h174q241 0 381.5 -119t140.5 -336q0 -75 -17 -141t-56.5 -126t-98.5 -103t-148.5 -68t-201.5 -25h-301 q-65 0 -112.5 43.5t-47.5 103.5v986h-155q-51 0 -87 32.5t-36 73.5zM596 260h174q236 0 236 201q0 196 -236 196h-174v-397z" />
<glyph unicode="&#x463;" horiz-adv-x="1273" d="M31 1137q0 42 33.5 71t82.5 29h138v106q0 54 40.5 90.5t100.5 36.5t100.5 -36.5t40.5 -90.5v-106h131q47 0 81 -30.5t34 -71.5q0 -40 -34 -70.5t-81 -30.5h-131v-284h148q428 0 428 -367q0 -178 -103 -280.5t-299 -102.5h-315q-59 0 -100 37.5t-41 89.5v907h-138 q-49 0 -82.5 30t-33.5 73zM567 233h170q125 0 125 148q0 60 -31 98.5t-116 38.5h-148v-285z" />
<glyph unicode="&#x490;" horiz-adv-x="1030" d="M129 115v1188q0 54 45 97.5t109 43.5h411v137q0 53 42.5 93t101.5 40q58 0 100.5 -40t42.5 -93v-266q0 -55 -40.5 -92t-100.5 -37h-424v-1071q0 -53 -43 -92t-101 -39q-59 0 -101 39t-42 92z" />
<glyph unicode="&#x491;" horiz-adv-x="921" d="M129 113v802q0 51 39 85t96 34h320v144q0 54 40.5 90.5t100.5 36.5t100.5 -36.5t40.5 -90.5v-256q0 -53 -40.5 -89t-100.5 -36h-313v-684q0 -54 -41 -90.5t-101 -36.5t-100.5 36.5t-40.5 90.5z" />
<glyph unicode="&#x2000;" horiz-adv-x="959" />
<glyph unicode="&#x2001;" horiz-adv-x="1919" />
<glyph unicode="&#x2002;" horiz-adv-x="959" />
<glyph unicode="&#x2003;" horiz-adv-x="1919" />
<glyph unicode="&#x2004;" horiz-adv-x="639" />
<glyph unicode="&#x2005;" horiz-adv-x="479" />
<glyph unicode="&#x2006;" horiz-adv-x="319" />
<glyph unicode="&#x2007;" horiz-adv-x="319" />
<glyph unicode="&#x2008;" horiz-adv-x="239" />
<glyph unicode="&#x2009;" horiz-adv-x="383" />
<glyph unicode="&#x200a;" horiz-adv-x="106" />
<glyph unicode="&#x2010;" horiz-adv-x="899" d="M57 614q0 51 40 88t98 37h510q57 0 96 -37t39 -88q0 -54 -39 -89.5t-96 -35.5h-510q-59 0 -98.5 35.5t-39.5 89.5z" />
<glyph unicode="&#x2011;" horiz-adv-x="899" d="M57 614q0 51 40 88t98 37h510q57 0 96 -37t39 -88q0 -54 -39 -89.5t-96 -35.5h-510q-59 0 -98.5 35.5t-39.5 89.5z" />
<glyph unicode="&#x2012;" horiz-adv-x="899" d="M57 614q0 51 40 88t98 37h510q57 0 96 -37t39 -88q0 -54 -39 -89.5t-96 -35.5h-510q-59 0 -98.5 35.5t-39.5 89.5z" />
<glyph unicode="&#x2013;" horiz-adv-x="964" d="M57 598q0 52 40 89.5t98 37.5h573q58 0 97.5 -37.5t39.5 -89.5t-40.5 -88.5t-96.5 -36.5h-573q-58 0 -98 36t-40 89z" />
<glyph unicode="&#x2014;" horiz-adv-x="1167" d="M57 598q0 52 40 89.5t98 37.5h778q58 0 97.5 -37.5t39.5 -89.5t-40.5 -88.5t-96.5 -36.5h-778q-58 0 -98 36t-40 89z" />
<glyph unicode="&#x2018;" horiz-adv-x="550" d="M104 1065q0 65 26 162.5t73 177.5t94 80q21 0 39.5 -5.5t34 -27.5t10.5 -59q-3 -33 -31.5 -85t-36.5 -98q59 -12 96 -55t37 -98q0 -65 -50 -111.5t-122 -46.5q-70 0 -120 46.5t-50 119.5z" />
<glyph unicode="&#x2019;" horiz-adv-x="552" d="M104 1327q0 65 50 111.5t122 46.5q70 0 120 -46.5t50 -119.5q0 -65 -26 -162.5t-72.5 -177.5t-93.5 -80q-21 0 -39.5 5.5t-34 27.5t-10.5 59q3 33 31.5 85t36.5 98q-59 12 -96.5 55t-37.5 98z" />
<glyph unicode="&#x201a;" horiz-adv-x="552" d="M104 141q0 65 50 111.5t122 46.5q70 0 120 -46.5t50 -119.5q0 -65 -26 -162.5t-72.5 -177.5t-93.5 -80q-21 0 -39.5 5.5t-34 27.5t-10.5 59q3 33 31.5 85t36.5 98q-59 12 -96.5 55t-37.5 98z" />
<glyph unicode="&#x201c;" horiz-adv-x="962" d="M104 1065q0 65 26 162.5t73 177.5t94 80q21 0 39.5 -5.5t34 -27.5t10.5 -59q-3 -33 -31.5 -85t-36.5 -98q59 -12 96 -55t37 -98q0 -65 -50 -111.5t-122 -46.5q-70 0 -120 46.5t-50 119.5zM516 1065q0 65 26 162.5t73 177.5t94 80q21 0 39.5 -5.5t34 -27.5t10.5 -59 q-3 -33 -31.5 -85t-36.5 -98q59 -12 96 -55t37 -98q0 -65 -50 -111.5t-122 -46.5q-70 0 -120 46.5t-50 119.5z" />
<glyph unicode="&#x201d;" horiz-adv-x="962" d="M104 1327q0 65 50 111.5t122 46.5q70 0 120 -46.5t50 -119.5q0 -65 -26 -162.5t-72.5 -177.5t-93.5 -80q-21 0 -39.5 5.5t-34 27.5t-10.5 59q3 33 31.5 85t36.5 98q-59 12 -96.5 55t-37.5 98zM516 1327q0 65 50 111.5t122 46.5q70 0 120 -46.5t50 -119.5 q0 -65 -26 -162.5t-72.5 -177.5t-93.5 -80q-21 0 -39.5 5.5t-34 27.5t-10.5 59q3 33 31 85t36 98q-59 12 -96 55t-37 98z" />
<glyph unicode="&#x201e;" horiz-adv-x="962" d="M104 139q0 65 50 111.5t122 46.5q70 0 120 -46.5t50 -119.5q0 -65 -26 -162.5t-72.5 -177.5t-93.5 -80q-21 0 -39.5 5.5t-34 27.5t-10.5 59q3 33 31.5 85t36.5 98q-59 12 -96.5 55t-37.5 98zM516 139q0 65 50 111.5t122 46.5q70 0 120 -46.5t50 -119.5q0 -65 -26 -162.5 t-72.5 -177.5t-93.5 -80q-21 0 -39.5 5.5t-34 27.5t-10.5 59q3 33 31 85t36 98q-59 12 -96 55t-37 98z" />
<glyph unicode="&#x2022;" horiz-adv-x="620" d="M117 561q0 78 57 135.5t135 57.5q79 0 137 -57.5t58 -135.5q0 -79 -57.5 -136.5t-137.5 -57.5q-78 0 -135 57.5t-57 136.5z" />
<glyph unicode="&#x2026;" horiz-adv-x="1617" d="M104 141q0 65 50 111.5t122 46.5q69 0 119.5 -47t50.5 -111q0 -65 -50.5 -112t-119.5 -47q-71 0 -121.5 47t-50.5 112zM637 141q0 65 50 111.5t122 46.5q69 0 119.5 -47t50.5 -111q0 -65 -50.5 -112t-119.5 -47q-71 0 -121.5 47t-50.5 112zM1169 141q0 65 50 111.5 t122 46.5q69 0 119.5 -47t50.5 -111q0 -65 -50.5 -112t-119.5 -47q-71 0 -121.5 47t-50.5 112z" />
<glyph unicode="&#x202f;" horiz-adv-x="383" />
<glyph unicode="&#x2039;" horiz-adv-x="651" d="M63 524l312 469q17 28 33.5 41t42.5 13q37 0 67.5 -34t30.5 -83q0 -24 -10 -39l-248 -363l266 -385q10 -13 10 -34q0 -51 -28.5 -88t-73.5 -37q-26 0 -42 12t-36 43z" />
<glyph unicode="&#x203a;" horiz-adv-x="651" d="M84 109q0 21 10 34l266 385l-247 363q-11 17 -11 39q0 49 31 83t68 34q26 0 42 -13t33 -41l312 -469l-324 -485q-20 -31 -36 -43t-42 -12q-45 0 -73.5 37t-28.5 88z" />
<glyph unicode="&#x205f;" horiz-adv-x="479" />
<glyph unicode="&#x20ac;" d="M20 588q0 32 24.5 54t55.5 22h74v114h-74q-34 0 -57 22t-23 54t24.5 54t55.5 22h74v78q0 213 120.5 333.5t360.5 120.5q157 0 280.5 -65.5t123.5 -153.5q0 -50 -38.5 -86.5t-96.5 -36.5q-14 0 -24.5 1.5t-20 5t-14 6t-15 9.5t-14.5 9q-85 61 -170 61q-113 0 -159 -51.5 t-46 -152.5v-78h311q31 0 55.5 -22t24.5 -54t-23 -54t-57 -22h-311v-114h229q31 0 55.5 -22t24.5 -54t-23 -54t-57 -22h-229v-74q0 -101 46.5 -153t158.5 -52q45 0 85 15t93 53q3 2 9 5.5t8.5 4.5t8 4t8.5 4t9 2.5t11 2.5t11.5 1.5t14.5 0.5q58 0 96.5 -36.5t38.5 -86.5 q0 -88 -123.5 -153.5t-280.5 -65.5q-240 0 -360.5 120.5t-120.5 333.5v74h-74q-34 0 -57 22t-23 54z" />
<glyph unicode="&#x20b4;" d="M35 588q0 32 24.5 54t55.5 22h223q36 40 113 114h-336q-34 0 -57 22t-23 54t24.5 54t55.5 22h512q51 43 70.5 72.5t19.5 74.5q0 68 -38 96.5t-114 28.5q-71 0 -157 -31q-68 -22 -105 -22q-62 0 -100.5 38t-38.5 91q0 54 45 93t116 57.5t135.5 26t125.5 7.5 q188 0 282.5 -78t94.5 -249q0 -112 -52 -205h80q31 0 55.5 -22t24.5 -54t-23 -54t-57 -22h-198q-49 -52 -117 -114h315q31 0 55.5 -22t24.5 -54t-23 -54t-57 -22h-487q-48 -46 -66 -77.5t-18 -72.5q0 -70 40.5 -98t112.5 -28q65 0 139.5 26.5t114.5 26.5q69 0 107.5 -38.5 t38.5 -90.5q0 -54 -45.5 -93t-116.5 -57.5t-135.5 -26.5t-124.5 -8q-377 0 -377 320q0 114 53 217h-112q-34 0 -57 22t-23 54z" />
<glyph unicode="&#x20bd;" d="M20 350q0 32 24.5 54t55.5 22h50v115h-50q-34 0 -57 21.5t-23 53.5t24.5 54t55.5 22h50v604q0 60 47.5 104t111.5 44h219q139 0 243 -39t163.5 -107.5t88 -151.5t28.5 -181q0 -206 -141 -319.5t-382 -113.5h-92v-106h213q31 0 55.5 -22t24.5 -54t-23 -54t-57 -22h-213 v-157q0 -54 -42.5 -94.5t-100.5 -40.5q-57 0 -100 40t-43 95v157h-50q-34 0 -57 22t-23 54zM436 752h92q236 0 236 215q0 217 -236 217h-92v-432z" />
<glyph unicode="&#x2122;" horiz-adv-x="1624" d="M20 1354q0 40 28 68t69 28h481q39 0 67.5 -28.5t28.5 -67.5q0 -41 -28 -67.5t-68 -26.5h-143v-584q0 -40 -29 -67t-70 -27q-40 0 -68 28t-28 66v584h-143q-42 0 -69.5 26.5t-27.5 67.5zM758 674v686q0 44 27.5 72t70.5 28q66 0 94 -57l193 -395l192 395v-2q27 59 95 59 q37 0 67.5 -31t30.5 -69v-686q0 -36 -29 -64t-65 -28q-40 0 -68.5 27.5t-28.5 64.5v391q-63 -125 -104 -213q-26 -57 -90 -57q-28 0 -54 16t-38 41q-22 44 -39 77t-28.5 57t-37.5 79v-391q0 -36 -29 -64t-65 -28q-39 0 -66.5 27.5t-27.5 64.5z" />
<glyph unicode="&#x25fc;" horiz-adv-x="1044" d="M0 0v1044h1044v-1044h-1044z" />
</font>
</defs>
</svg>
